<!DOCTYPE svg PUBLIC "-//W3C//DTD SVG 20010904//EN" "http://www.w3.org/TR/2001/REC-SVG-20010904/DTD/svg10.dtd">
<svg version="1.0" xmlns="http://www.w3.org/2000/svg" width="640px" height="640px" viewBox="0 0 6400 6400" preserveAspectRatio="xMidYMid meet">
<g id="layer101" fill="#171717" fill-rule="evenodd">
<path d="M3130 6400 L3095 6400L3060 6400L3060 6400 L3002 6394C2971 6391,2943 6387,2941 6385 C2939 6383,2951 6374,2968 6365 C2984 6357,3000 6342,3003 6332 C3006 6322,3012 6253,3015 6177 L3022 6039 2991 6028 C2974 6022,2960 6013,2960 6007 C2960 6000,2983 5999,3027 6003 C3064 6006,3107 6009,3122 6009 C3137 6009,3150 6014,3150 6018 C3150 6023,3138 6030,3124 6034 C3110 6037,3095 6050,3090 6062 C3086 6075,3080 6143,3077 6213 C3073 6326,3075 6345,3090 6360 C3099 6369,3112 6379,3118 6381 C3124 6383,3130 6388,3130 6392 L3130 6400" />
<path d="M3480 6400 L3470 6400 L3437 6394C3419 6391,3385 6376,3360 6361 C3332 6344,3308 6318,3293 6290 C3277 6260,3270 6230,3270 6193 C3270 6163,3276 6124,3283 6107 C3290 6089,3313 6060,3333 6042 C3353 6025,3388 6005,3412 5999 C3435 5993,3476 5990,3503 5992 C3529 5995,3563 6006,3578 6017 C3592 6027,3619 6055,3637 6079 C3665 6116,3670 6129,3670 6181 C3670 6221,3663 6252,3650 6277 C3639 6298,3624 6322,3617 6330 C3610 6339,3592 6354,3577 6364 C3561 6374,3536 6386,3519 6391 L3490 6400M3421 6340 C3382 6314,3340 6227,3340 6172 C3340 6038,3466 5972,3545 6064 C3615 6144,3618 6291,3551 6343 C3522 6365,3456 6364,3421 6340 " />
<path d="M2677 6359 C2632 6348,2565 6335,2530 6329 C2454 6317,2435 6304,2478 6295 C2494 6291,2512 6283,2517 6276 C2530 6260,2572 6027,2568 5998 C2566 5985,2554 5970,2542 5965 C2530 5959,2520 5949,2520 5942 C2520 5927,2515 5927,2620 5948 C2705 5965,2728 5982,2677 5988 C2662 5989,2646 5998,2641 6008 C2629 6032,2585 6298,2592 6305 C2601 6315,2671 6329,2708 6329 C2733 6329,2748 6321,2775 6292 C2815 6248,2827 6254,2811 6309 C2792 6376,2774 6383,2677 6359 " />
<path d="M3956 6280 L3982 6251 3945 6113 C3924 6037,3904 5971,3900 5966 C3896 5962,3872 5964,3847 5970 C3809 5980,3799 5987,3790 6012 C3777 6051,3764 6039,3754 5981 C3747 5937,3748 5937,3774 5942 C3808 5948,4055 5886,4078 5865 C4106 5841,4114 5846,4125 5895 C4138 5949,4133 5956,4103 5928 C4082 5909,4077 5908,4030 5919 C4002 5926,3977 5935,3974 5940 C3969 5949,4027 6195,4041 6222 C4046 6232,4064 6243,4080 6246 C4097 6249,4109 6257,4107 6262 C4103 6273,3982 6310,3950 6310 C3931 6310,3931 6307,3956 6280 " />
<path d="M2212 6244 C2040 6188,1988 6160,2059 6160 C2074 6160,2091 6154,2097 6147 C2109 6130,2190 5901,2190 5882 C2190 5873,2180 5855,2168 5843 C2156 5830,2148 5817,2151 5815 C2161 5804,2348 5871,2373 5894 C2410 5928,2409 5972,2370 6010 C2354 6026,2334 6040,2325 6040 C2304 6040,2305 6044,2334 6073 C2366 6105,2375 6141,2358 6175 C2334 6223,2259 6259,2212 6244 M2170 6196 C2160 6183,2191 6067,2210 6046 C2222 6033,2279 6068,2290 6095 C2300 6121,2289 6161,2264 6192 C2247 6213,2184 6216,2170 6196 M2225 6011 C2222 6006,2229 5975,2241 5941 C2263 5873,2283 5863,2320 5900 C2348 5928,2345 5973,2315 5999 C2289 6020,2234 6027,2225 6011 " />
<path d="M4331 6169 L4352 6138 4310 6040 C4242 5883,4229 5864,4191 5867 C4174 5868,4160 5865,4160 5859 C4160 5850,4301 5780,4321 5780 C4326 5780,4320 5793,4309 5808 L4287 5837 4315 5898 C4330 5932,4343 5960,4344 5960 C4346 5960,4385 5941,4433 5919 L4519 5879 4494 5822 C4465 5758,4455 5748,4421 5756 C4369 5769,4408 5735,4483 5701 C4563 5665,4589 5665,4551 5700 C4539 5711,4530 5726,4530 5733 C4530 5752,4629 5972,4647 5992 C4656 6002,4675 6010,4691 6010 C4736 6010,4725 6022,4647 6057 C4558 6097,4541 6099,4568 6064 C4590 6036,4589 6026,4549 5949 C4538 5927,4526 5911,4522 5913 C4518 5915,4480 5933,4437 5953 C4394 5973,4360 5992,4360 5995 C4360 6007,4413 6105,4423 6112 C4429 6116,4445 6119,4457 6119 C4469 6119,4479 6123,4479 6127 C4479 6135,4337 6200,4320 6200 C4314 6200,4319 6186,4331 6169 " />
<path d="M1800 6082 C1761 6062,1730 6042,1730 6038 C1730 6034,1746 6029,1767 6028 C1804 6025,1806 6022,1856 5925 C1885 5870,1913 5808,1920 5787 C1932 5752,1931 5747,1909 5724 C1891 5705,1890 5700,1902 5700 C1924 5700,2070 5770,2070 5781 C2070 5785,2052 5790,2031 5790 L1993 5790 1931 5917 C1897 5987,1869 6048,1869 6053 C1869 6058,1879 6074,1890 6090 C1910 6120,1910 6120,1890 6120 C1879 6120,1838 6103,1800 6082 " />
<path d="M4830 5942 C4830 5938,4837 5926,4845 5915 C4853 5904,4859 5889,4859 5880 C4859 5872,4824 5813,4780 5750 C4704 5637,4701 5635,4666 5636 C4646 5636,4630 5633,4630 5629 C4630 5621,4842 5472,4868 5462 C4881 5457,4919 5494,4919 5512 C4919 5517,4904 5518,4886 5514 C4858 5509,4843 5514,4801 5541 C4773 5559,4750 5578,4750 5582 C4749 5595,4814 5689,4826 5693 C4843 5700,4910 5641,4910 5619 C4910 5589,4925 5596,4951 5637 C4985 5692,4985 5692,4951 5685 C4922 5678,4904 5686,4851 5726 C4844 5731,4896 5814,4918 5833 C4938 5851,4939 5850,4999 5810 C5058 5770,5060 5768,5060 5724 C5060 5664,5085 5663,5097 5722 C5102 5745,5104 5768,5102 5772 C5097 5783,4864 5938,4845 5945 C4836 5947,4830 5946,4830 5942 " />
<path d="M1512 5916 C1474 5897,1340 5810,1340 5804 C1340 5801,1358 5800,1381 5801 C1428 5804,1421 5811,1515 5664 C1583 5558,1589 5540,1565 5520 C1547 5505,1545 5490,1561 5490 C1581 5490,1719 5581,1744 5611 C1758 5628,1769 5651,1769 5663 C1769 5704,1716 5750,1669 5750 C1648 5750,1647 5750,1663 5768 C1673 5779,1683 5803,1686 5823 C1691 5855,1688 5863,1656 5894 C1627 5923,1612 5930,1580 5930 C1558 5930,1527 5923,1512 5916 M1493 5876 C1471 5858,1480 5827,1525 5767 C1559 5720,1560 5719,1585 5736 C1628 5764,1630 5828,1589 5869 C1567 5892,1517 5896,1493 5876 M1612 5714 C1602 5710,1590 5704,1585 5699 C1572 5686,1640 5580,1661 5580 C1682 5580,1710 5616,1710 5646 C1710 5687,1652 5727,1612 5714 " />
<path d="M3002 5860 C2377 5801,1838 5566,1390 5155 C1080 4871,810 4462,686 4085 C671 4041,655 3996,650 3985 C634 3951,591 3762,570 3630 C541 3453,527 3245,534 3105 C545 2886,603 2542,641 2467 C646 2458,650 2443,650 2434 C650 2411,703 2257,745 2159 C1012 1532,1513 1028,2140 754 C2511 591,2979 509,3365 539 C3749 568,4046 648,4378 811 C4906 1070,5331 1495,5590 2025 C5655 2158,5757 2418,5774 2495 C5798 2600,5812 2668,5825 2745 C5834 2794,5842 2846,5845 2860 C5867 2986,5870 3330,5850 3490 C5797 3924,5655 4316,5425 4665 C5218 4979,4934 5257,4610 5463 C4403 5595,4036 5745,3790 5800 C3548 5853,3206 5880,3002 5860 M2973 5820 C2771 5800,2657 5778,2465 5722 C1786 5525,1207 5053,873 4425 C803 4293,701 4042,685 3964 C683 3953,670 3905,655 3856 C544 3476,546 2904,660 2525 C724 2310,744 2251,790 2148 C998 1680,1321 1295,1740 1015 C2443 545,3324 442,4120 736 C4723 960,5250 1430,5540 2005 C5639 2201,5677 2298,5725 2477 C5789 2715,5787 2703,5819 3011 C5865 3446,5753 3990,5531 4415 C5401 4663,5267 4842,5055 5055 C4721 5388,4371 5596,3918 5728 C3631 5812,3258 5848,2973 5820 M3169 5671 C3116 5661,3100 5637,3116 5595 C3124 5574,3137 5575,3144 5598 C3151 5619,3190 5640,3224 5640 C3286 5640,3333 5545,3310 5468 C3293 5411,3266 5388,3221 5391 C3188 5394,3184 5397,3181 5427 C3179 5454,3183 5461,3204 5471 C3245 5490,3234 5498,3164 5501 C3097 5505,3072 5495,3103 5478 C3114 5472,3120 5455,3120 5429 C3120 5399,3125 5387,3142 5378 C3236 5328,3340 5362,3375 5455 C3390 5493,3391 5507,3381 5539 C3352 5635,3263 5690,3169 5671 M2817 5629 C2794 5623,2764 5616,2752 5613 C2725 5608,2731 5590,2760 5590 C2786 5590,2791 5578,2806 5485 C2824 5372,2824 5362,2793 5346 C2750 5324,2782 5317,2865 5331 C2936 5343,2959 5361,2912 5368 C2886 5371,2884 5377,2864 5492 L2848 5584 2874 5605 C2917 5639,2894 5648,2817 5629 M3706 5582 C3694 5561,3663 5509,3639 5466 C3605 5405,3587 5383,3561 5372 C3519 5355,3528 5346,3604 5326 C3672 5309,3688 5313,3664 5340 C3647 5359,3651 5390,3672 5407 C3680 5412,3701 5413,3727 5407 C3767 5399,3770 5396,3770 5363 C3770 5336,3765 5326,3750 5322 C3721 5315,3725 5301,3757 5294 C3772 5291,3802 5284,3823 5278 C3873 5265,3879 5273,3847 5307 C3825 5330,3817 5355,3800 5453 C3780 5567,3761 5620,3740 5620 C3734 5620,3719 5603,3706 5582 M3720 5487 C3695 5446,3695 5440,3720 5438 C3731 5437,3745 5436,3752 5436 C3767 5434,3765 5481,3750 5505 C3741 5517,3736 5514,3720 5487 M4180 5565 C4180 5557,4184 5548,4190 5545 C4211 5531,4197 5484,4148 5401 C4069 5268,4053 5250,4019 5250 C4003 5250,3990 5246,3990 5242 C3990 5232,4151 5148,4158 5154 C4160 5157,4155 5168,4146 5178 C4137 5188,4130 5209,4130 5224 C4130 5261,4229 5427,4243 5413 C4246 5410,4246 5345,4242 5268 C4239 5188,4240 5130,4245 5130 C4250 5130,4300 5169,4355 5216 C4423 5275,4455 5298,4457 5287 C4461 5270,4395 5123,4372 5097 C4363 5087,4346 5080,4333 5080 C4295 5080,4306 5067,4372 5032 C4450 4992,4468 4990,4440 5026 C4429 5040,4420 5061,4420 5071 C4420 5097,4498 5301,4516 5321 C4525 5331,4543 5340,4557 5341 C4599 5346,4593 5365,4543 5387 C4486 5412,4484 5411,4381 5323 C4340 5288,4300 5260,4292 5260 C4279 5260,4278 5279,4282 5385 L4287 5511 4243 5545 C4196 5582,4180 5587,4180 5565 M2350 5515 C2334 5507,2313 5489,2304 5475 C2288 5451,2288 5448,2304 5424 C2323 5395,2340 5400,2340 5434 C2340 5463,2383 5500,2417 5500 C2484 5500,2547 5414,2536 5336 C2526 5258,2462 5231,2391 5276 C2360 5296,2351 5285,2370 5251 C2390 5216,2450 5210,2514 5238 C2572 5264,2599 5308,2599 5375 C2599 5433,2577 5473,2525 5506 C2483 5534,2397 5538,2350 5515 M1910 5283 C1910 5274,1924 5213,1941 5147 C1967 5048,1970 5024,1961 5003 C1954 4989,1951 4974,1955 4971 C1962 4964,2073 5024,2077 5038 C2079 5044,2068 5050,2053 5051 C2016 5056,1998 5104,2026 5125 C2076 5162,2088 5164,2114 5140 C2133 5122,2137 5113,2129 5099 C2107 5058,2124 5060,2195 5105 C2255 5144,2258 5155,2207 5151 C2181 5150,2155 5164,2072 5224 C1998 5278,1961 5300,1940 5300 C1918 5300,1910 5295,1910 5283 M1991 5190 C2003 5144,2008 5142,2040 5168 L2062 5186 2026 5208 C2006 5220,1987 5230,1985 5230 C1982 5230,1985 5212,1991 5190 M3140 5274 C3123 5259,3110 5242,3110 5235 C3110 5226,3084 5220,3027 5215 C2731 5191,2442 5087,2168 4908 C2067 4842,2042 4830,2019 4835 C1985 4842,1935 4819,1919 4788 C1912 4776,1909 4748,1912 4724 L1917 4682 1821 4681 C1768 4681,1721 4680,1717 4680 C1713 4680,1710 4652,1710 4619 C1709 4559,1709 4557,1656 4501 C1492 4327,1351 4079,1276 3830 C1241 3711,1228 3666,1223 3640 C1189 3443,1178 3239,1191 3050 C1196 2964,1205 2890,1210 2885 C1215 2880,1220 2851,1220 2822 C1220 2789,1223 2771,1230 2775 C1236 2778,1240 2764,1239 2739 C1239 2658,1324 2412,1412 2235 C1508 2042,1611 1899,1774 1731 C2060 1437,2415 1253,2805 1196 C2956 1174,3055 1171,3055 1189 C3055 1200,3034 1207,2982 1216 C2528 1292,2116 1637,1936 2092 C1910 2156,1860 2339,1860 2367 C1859 2377,1891 2379,2006 2377 L2152 2375 2166 2320 C2284 1854,2713 1520,3196 1520 C3491 1519,3732 1616,3941 1817 C4085 1955,4183 2121,4229 2303 L4247 2375 4393 2377 C4558 2380,4547 2387,4529 2297 C4486 2092,4418 1926,4310 1762 C4118 1469,3802 1270,3464 1226 C3358 1212,3318 1197,3354 1183 C3364 1180,3423 1182,3485 1189 C4087 1253,4594 1572,4910 2085 C5001 2233,5122 2521,5155 2671 C5158 2681,5162 2700,5165 2712 C5168 2724,5172 2746,5174 2760 C5176 2773,5183 2816,5189 2854 C5225 3072,5220 3389,5179 3588 C5114 3901,4921 4291,4720 4513 C4689 4547,4684 4561,4680 4617 L4675 4682 4592 4681 L4510 4681 4516 4724 C4519 4749,4517 4776,4510 4789 C4496 4815,4436 4843,4410 4835 C4398 4831,4367 4844,4323 4873 C4058 5042,3657 5187,3375 5215 C3310 5222,3301 5226,3267 5261 C3221 5308,3184 5312,3140 5274 M3155 5237 C3134 5207,3136 5186,3159 5165 C3186 5141,3230 5148,3249 5181 C3262 5204,3262 5210,3246 5233 C3224 5267,3176 5269,3155 5237 M3290 5175 C3290 5151,3231 5110,3195 5110 C3163 5110,3110 5149,3110 5172 C3110 5201,2800 5151,2621 5093 C2508 5057,2309 4958,2189 4879 L2084 4809 2084 4745 L2085 4681 2174 4682 C2226 4682,2265 4678,2267 4672 C2269 4666,2294 4674,2322 4690 C2521 4796,2874 4848,3310 4836 C3635 4827,3848 4794,4035 4724 C4125 4689,4144 4686,4235 4685 L4336 4685 4336 4730 C4336 4754,4339 4784,4343 4795 C4349 4811,4340 4821,4282 4856 C4050 4999,3708 5125,3417 5175 C3308 5193,3290 5193,3290 5175 M1960 4780 C1935 4755,1934 4728,1958 4706 C1995 4673,2060 4699,2060 4747 C2060 4766,2022 4800,2000 4800 C1989 4800,1971 4791,1960 4780 M2932 4795 C2911 4792,2852 4785,2800 4779 C2653 4763,2461 4712,2367 4665 L2285 4625 2282 4567 C2280 4535,2281 4510,2284 4510 C2288 4510,2300 4516,2312 4524 C2403 4583,2681 4650,2913 4669 C3072 4682,3337 4682,3495 4669 C3721 4651,3975 4598,4070 4549 C4091 4538,4113 4530,4119 4530 C4125 4530,4130 4553,4130 4585 L4130 4641 4067 4670 C3986 4707,3801 4755,3661 4774 C3550 4789,3008 4805,2932 4795 M4385 4781 C4352 4742,4374 4690,4423 4690 C4463 4690,4480 4705,4480 4741 C4480 4794,4417 4821,4385 4781 M1755 4643 C1752 4639,1750 4610,1750 4578 L1750 4520 1990 4520 L2230 4520 2225 4580 L2220 4640 1990 4645 C1863 4647,1757 4647,1755 4643 M3052 4640 C2739 4617,2546 4582,2399 4520 C2304 4481,2292 4473,2305 4461 C2317 4448,2480 4394,2532 4384 L2570 4377 2570 4442 L2570 4507 2614 4518 C2638 4524,2661 4530,2664 4530 C2667 4530,2670 4491,2670 4445 C2670 4398,2671 4360,2673 4360 C2680 4360,3033 4440,3070 4450 L3108 4460 3104 4528 C3098 4613,3105 4621,3196 4622 C3297 4625,3310 4615,3310 4530 C3310 4492,3314 4458,3319 4455 C3324 4452,3416 4430,3524 4406 L3720 4363 3720 4441 C3720 4531,3725 4537,3788 4520 L3830 4509 3830 4444 C3830 4399,3833 4380,3842 4380 C3849 4380,3895 4391,3945 4404 C4044 4431,4131 4468,4124 4480 C4117 4492,3944 4556,3875 4573 C3782 4596,3620 4618,3457 4629 C3376 4635,3283 4642,3250 4645 C3217 4647,3128 4645,3052 4640 M4170 4585 L4170 4520 4405 4520 L4640 4520 4640 4585 L4640 4650 4405 4650 L4170 4650 4170 4585 M3145 4577 C3142 4570,3139 4533,3137 4495 L3135 4425 3095 4417 C3073 4412,2969 4388,2865 4364 C2760 4339,2667 4319,2657 4319 C2637 4320,2637 4319,2639 4411 C2640 4448,2637 4480,2632 4483 C2600 4503,2599 4479,2602 3603 L2605 2733 2725 2761 C2791 2777,2919 2806,3010 2827 L3175 2865 3177 3727 C3179 4488,3178 4590,3165 4590 C3156 4590,3147 4584,3145 4577 M2877 4176 C2749 4134,2718 4114,2686 4052 C2666 4013,2658 3907,2671 3850 C2692 3754,2739 3737,2879 3775 C3056 3822,3100 3867,3108 4005 C3117 4187,3054 4234,2877 4176 M2887 4140 C2735 4091,2699 4051,2700 3931 C2700 3806,2725 3778,2817 3797 C2941 3823,2983 3840,3027 3884 L3070 3927 3070 4017 C3070 4124,3066 4136,3028 4155 C2991 4174,2994 4174,2887 4140 M2899 3744 C2785 3713,2738 3689,2705 3646 C2643 3565,2653 3365,2721 3329 C2756 3310,2800 3314,2902 3344 C3059 3391,3109 3449,3109 3587 C3110 3694,3078 3752,3015 3765 C3001 3767,2949 3758,2899 3744 M2895 3706 C2741 3662,2708 3628,2701 3504 C2697 3415,2712 3366,2749 3355 C2776 3346,2967 3395,3000 3418 C3054 3458,3070 3495,3070 3591 C3070 3673,3067 3682,3045 3705 C3014 3735,3000 3735,2895 3706 M2854 3292 C2706 3244,2666 3193,2666 3050 C2666 2880,2713 2852,2904 2905 C3054 2946,3110 3011,3110 3147 C3110 3227,3093 3278,3061 3303 C3029 3328,2952 3323,2854 3292 M2889 3265 C2739 3220,2700 3176,2700 3050 C2700 2968,2718 2923,2754 2914 C2782 2907,2946 2950,2992 2976 C3052 3012,3070 3051,3070 3151 C3070 3233,3067 3242,3045 3265 C3013 3296,2990 3296,2889 3265 M3220 3731 L3220 2873 3272 2860 C3301 2854,3424 2826,3545 2799 C3666 2771,3772 2747,3782 2744 C3799 2738,3800 2784,3800 3608 C3800 4345,3797 4478,3785 4483 C3763 4491,3760 4480,3760 4398 C3760 4327,3758 4320,3740 4320 C3730 4320,3647 4337,3558 4359 C3468 4380,3368 4404,3335 4412 L3275 4425 3272 4500 C3269 4574,3262 4590,3235 4590 C3221 4590,3220 4487,3220 3731 M3338 4183 C3305 4157,3290 4107,3290 4021 C3290 3877,3341 3822,3523 3774 C3632 3745,3665 3747,3701 3786 C3722 3809,3725 3821,3728 3918 C3731 4019,3729 4027,3704 4065 C3669 4118,3628 4144,3525 4174 C3426 4203,3368 4206,3338 4183 M3372 4158 C3335 4135,3330 4116,3330 4023 C3330 3933,3331 3929,3361 3894 C3400 3850,3424 3837,3522 3811 C3666 3771,3692 3785,3698 3905 C3705 4041,3667 4091,3525 4134 C3409 4169,3392 4171,3372 4158 M3372 3763 C3316 3744,3289 3687,3290 3587 C3290 3451,3340 3390,3491 3345 C3683 3288,3730 3316,3730 3490 C3730 3644,3697 3684,3528 3735 C3433 3765,3395 3771,3372 3763 M3355 3705 C3335 3686,3329 3669,3328 3632 C3323 3460,3349 3424,3511 3378 C3630 3345,3663 3347,3685 3390 C3706 3431,3704 3544,3680 3595 C3656 3648,3611 3676,3499 3706 C3388 3735,3385 3735,3355 3705 M3335 3299 C3299 3269,3287 3219,3291 3124 C3295 3053,3300 3036,3323 3005 C3364 2952,3414 2923,3506 2900 C3690 2854,3730 2880,3729 3052 C3729 3158,3710 3207,3650 3247 C3604 3278,3502 3309,3425 3315 C3369 3319,3356 3316,3335 3299 M3355 3265 C3332 3242,3330 3233,3330 3151 C3330 3048,3347 3010,3414 2973 C3465 2944,3621 2906,3650 2915 C3680 2924,3700 2978,3700 3055 C3700 3176,3657 3222,3504 3266 C3399 3295,3385 3295,3355 3265 M1666 4461 C1562 4342,1453 4172,1396 4040 C1380 4004,1362 3961,1354 3945 C1320 3867,1281 3721,1244 3525 C1213 3369,1217 2941,1249 2865 C1254 2854,1265 2800,1274 2745 C1316 2497,1455 2184,1628 1953 C1710 1842,1899 1652,2005 1573 C2114 1491,2246 1413,2360 1363 C2455 1321,2688 1245,2697 1254 C2699 1256,2668 1273,2628 1292 C2412 1392,2193 1582,2052 1791 C1959 1928,1850 2177,1850 2250 C1850 2265,1846 2281,1841 2284 C1836 2287,1829 2309,1825 2334 C1819 2377,1817 2378,1781 2381 L1745 2385 1742 2481 L1739 2578 1772 2581 L1805 2585 1807 3532 L1810 4480 1765 4480 C1740 4480,1715 4484,1710 4490 C1703 4496,1688 4487,1666 4461 M4680 4490 C4680 4484,4666 4480,4650 4480 C4632 4480,4619 4474,4619 4467 C4619 4458,4619 2828,4619 2607 C4619 2594,4628 2590,4655 2590 L4690 2590 4690 2490 L4690 2390 4637 2389 L4585 2389 4566 2297 C4542 2173,4546 2188,4505 2070 C4390 1745,4181 1490,3895 1327 C3835 1293,3863 1299,3985 1347 C4447 1528,4819 1900,5018 2380 C5065 2492,5118 2671,5136 2775 C5169 2965,5179 3060,5179 3184 C5180 3313,5162 3517,5149 3542 C5144 3551,5140 3575,5140 3595 C5140 3614,5135 3638,5130 3647 C5125 3657,5103 3723,5080 3795 C5013 4007,4899 4222,4748 4422 C4690 4499,4680 4509,4680 4490 M1845 4471 C1842 4466,1842 4042,1845 3528 L1849 2595 2009 2592 L2170 2589 2170 3534 L2170 4480 2010 4480 C1922 4480,1847 4476,1845 4471 M1995 4013 C1992 4009,1990 3937,1990 3853 L1990 3700 1945 3700 C1903 3700,1900 3697,1900 3675 C1900 3652,1931 3553,1949 3519 C1958 3502,1972 3444,1969 3432 C1968 3428,1963 3426,1957 3428 C1929 3436,1900 3419,1900 3394 C1900 3372,1903 3370,1944 3370 L1989 3370 1992 3208 C1994 3091,1998 3045,2007 3042 C2016 3039,2020 3078,2022 3201 L2025 3365 2068 3368 C2107 3370,2110 3373,2108 3397 C2105 3417,2098 3423,2076 3425 C2060 3427,2046 3430,2043 3432 C2041 3434,2053 3476,2070 3524 C2086 3572,2103 3631,2106 3655 L2112 3698 2068 3701 L2025 3705 2022 3862 C2020 4005,2014 4038,1995 4013 M1956 3602 C1964 3581,1978 3541,1987 3512 C1995 3483,2006 3462,2010 3465 C2014 3467,2023 3493,2030 3521 C2037 3549,2048 3584,2056 3598 C2063 3613,2069 3628,2069 3632 C2069 3636,2040 3640,2005 3640 L1940 3640 1956 3602 M2210 3530 L2210 2580 2240 2580 L2270 2580 2267 2482 L2265 2385 2227 2381 C2192 2378,2190 2377,2195 2351 C2229 2200,2314 2036,2428 1901 C2538 1772,2766 1631,2934 1589 C3349 1486,3777 1632,4027 1965 C4086 2043,4164 2200,4189 2291 C4214 2382,4214 2390,4190 2390 C4171 2390,4170 2396,4170 2490 C4170 2583,4171 2590,4190 2590 C4209 2590,4210 2596,4210 3535 C4210 4193,4206 4480,4199 4480 C4193 4479,4172 4466,4151 4450 C4111 4419,4016 4382,3902 4355 L3830 4337 3830 3539 C3830 2750,3830 2740,3850 2730 C3867 2720,3870 2709,3870 2625 L3870 2531 3752 2504 C3687 2489,3538 2454,3420 2425 L3205 2373 3120 2392 C3073 2402,2963 2428,2875 2449 C2787 2471,2675 2496,2627 2506 L2540 2524 2540 2621 C2540 2697,2543 2719,2555 2723 C2568 2728,2570 2827,2570 3532 L2570 4335 2466 4363 C2358 4392,2276 4426,2235 4460 L2210 4480 2210 3530 M4252 3537 L4255 2595 4415 2595 L4575 2595 4577 3537 L4580 4480 4415 4480 L4250 4480 4252 3537 M4393 4219 C4390 4213,4387 4152,4387 4085 L4388 3961 4343 3938 C4319 3925,4300 3908,4302 3901 C4303 3894,4336 3871,4374 3852 L4443 3816 4371 3781 C4327 3759,4300 3739,4300 3729 C4300 3719,4326 3700,4370 3680 C4408 3661,4439 3643,4439 3640 C4439 3637,4408 3620,4369 3602 C4328 3583,4300 3564,4300 3555 C4300 3546,4330 3524,4372 3503 L4444 3467 4417 3453 C4400 3445,4389 3430,4388 3417 C4387 3397,4388 3166,4389 3147 C4390 3133,4417 3139,4423 3155 C4427 3164,4430 3225,4430 3290 L4430 3409 4470 3430 C4524 3458,4519 3476,4443 3514 C4409 3531,4378 3548,4374 3552 C4370 3555,4399 3573,4438 3590 C4485 3611,4510 3628,4510 3639 C4510 3649,4483 3668,4437 3691 L4365 3727 4437 3763 C4478 3784,4510 3806,4510 3815 C4510 3823,4478 3845,4438 3865 L4367 3901 4397 3919 L4427 3937 4429 4066 C4430 4137,4428 4203,4425 4212 C4419 4232,4403 4235,4393 4219 M3107 2814 C3056 2800,2685 2713,2602 2694 C2582 2690,2580 2683,2580 2629 C2580 2572,2581 2569,2602 2574 C2614 2577,2701 2595,2795 2614 C2888 2633,3018 2660,3084 2675 L3203 2700 3489 2644 C3646 2614,3787 2586,3802 2583 L3830 2578 3830 2637 L3830 2696 3757 2713 C3717 2722,3587 2752,3467 2779 C3229 2834,3199 2837,3107 2814 M2967 2615 C2856 2590,2762 2570,2760 2569 C2744 2566,2824 2544,2997 2504 L3193 2459 3334 2490 C3541 2535,3643 2561,3653 2569 C3657 2574,3639 2580,3613 2584 C3586 2588,3489 2607,3397 2625 C3305 2644,3216 2660,3200 2660 C3183 2660,3078 2639,2967 2615 M4204 2526 C4197 2486,4211 2424,4228 2426 C4234 2426,4332 2427,4445 2428 L4650 2430 4645 2490 L4640 2550 4425 2555 L4210 2560 4204 2526 M1785 2543 C1782 2539,1780 2510,1780 2478 L1780 2420 2005 2420 L2230 2420 2225 2480 L2220 2540 2005 2545 C1886 2547,1787 2547,1785 2543 M2660 2542 C2660 2534,2993 2458,3015 2460 C3020 2461,2960 2476,2882 2494 C2804 2513,2726 2533,2709 2539 C2674 2551,2660 2552,2660 2542 M3672 2535 C3647 2523,3647 2521,3666 2520 C3677 2520,3692 2526,3698 2535 C3712 2553,3707 2553,3672 2535 M3512 2496 C3486 2488,3474 2482,3485 2482 C3496 2482,3526 2488,3552 2495 C3578 2503,3591 2510,3580 2510 C3569 2510,3538 2503,3512 2496 M3297 2447 C3230 2430,3182 2414,3191 2412 C3207 2408,3451 2466,3456 2475 C3464 2486,3410 2477,3297 2447 M3040 2450 C3040 2444,3046 2440,3055 2440 C3063 2440,3070 2444,3070 2450 C3070 2455,3063 2460,3055 2460 C3046 2460,3040 2455,3040 2450 M1487 5039 C1468 5013,1460 5009,1436 5014 C1421 5017,1399 5014,1387 5008 C1371 5000,1368 4991,1372 4960 C1377 4926,1374 4919,1348 4900 C1313 4874,1312 4847,1344 4822 C1365 4805,1368 4796,1363 4767 C1358 4737,1361 4729,1379 4720 C1392 4713,1416 4710,1433 4713 C1460 4718,1467 4714,1485 4687 C1496 4669,1513 4653,1523 4651 C1543 4647,1580 4676,1580 4695 C1580 4704,1594 4707,1626 4706 C1681 4704,1699 4723,1684 4766 C1675 4792,1677 4797,1704 4815 C1744 4842,1748 4872,1714 4898 C1692 4915,1689 4923,1695 4953 C1700 4982,1698 4990,1679 5000 C1667 5006,1642 5009,1624 5006 C1594 5002,1588 5005,1570 5035 C1544 5078,1517 5079,1487 5039 M1504 5017 C1491 4997,1491 4993,1506 4982 C1526 4967,1530 4967,1549 4979 C1561 4987,1561 4993,1552 5014 C1537 5045,1524 5046,1504 5017 M1400 4964 C1400 4933,1426 4921,1447 4943 C1466 4962,1450 4990,1420 4990 C1405 4990,1400 4983,1400 4964 M1604 4965 C1595 4944,1607 4930,1634 4930 C1655 4930,1670 4946,1670 4970 C1670 4986,1610 4981,1604 4965 M1483 4885 C1468 4861,1468 4858,1484 4835 C1501 4807,1546 4800,1568 4822 C1582 4836,1583 4881,1570 4898 C1551 4919,1501 4912,1483 4885 M1610 4895 C1610 4886,1614 4880,1620 4880 C1625 4880,1630 4886,1630 4895 C1630 4903,1625 4910,1620 4910 C1614 4910,1610 4903,1610 4895 M1357 4873 C1347 4860,1349 4855,1364 4843 C1381 4831,1386 4831,1398 4844 C1415 4860,1406 4890,1385 4890 C1376 4890,1364 4882,1357 4873 M1651 4872 C1633 4834,1659 4817,1695 4843 C1710 4855,1712 4860,1702 4873 C1686 4895,1662 4894,1651 4872 M1395 4783 C1383 4767,1391 4740,1407 4740 C1435 4740,1453 4756,1446 4773 C1440 4789,1404 4796,1395 4783 M1603 4775 C1593 4750,1607 4730,1634 4730 C1659 4730,1665 4741,1655 4774 C1648 4794,1611 4794,1603 4775 M1498 4740 C1489 4734,1491 4724,1504 4704 L1522 4677 1543 4699 C1563 4719,1564 4721,1547 4735 C1527 4752,1514 4753,1498 4740 M4855 4970 C4841 4944,4837 4942,4805 4949 C4759 4960,4734 4935,4743 4889 C4748 4863,4745 4854,4724 4838 C4694 4814,4692 4776,4720 4756 C4737 4744,4740 4735,4734 4707 C4726 4663,4746 4645,4797 4652 C4830 4656,4837 4653,4855 4626 C4882 4583,4912 4581,4940 4618 C4960 4645,4964 4646,4996 4637 C5025 4628,5032 4629,5045 4645 C5054 4657,5058 4678,5056 4701 C5052 4732,5056 4739,5081 4754 C5100 4765,5110 4779,5110 4794 C5110 4817,5087 4850,5071 4850 C5066 4850,5065 4862,5067 4878 C5070 4894,5066 4917,5060 4929 C5050 4948,5043 4950,5009 4944 C4973 4938,4967 4941,4945 4969 C4911 5009,4875 5010,4855 4970 M4878 4948 C4869 4930,4870 4924,4884 4913 C4917 4889,4946 4925,4920 4958 C4905 4975,4891 4972,4878 4948 M4772 4897 C4775 4870,4814 4860,4823 4885 C4832 4908,4823 4920,4795 4920 C4775 4920,4770 4915,4772 4897 M4985 4909 C4965 4895,4977 4870,5005 4870 C5027 4870,5044 4893,5035 4910 C5028 4923,5003 4922,4985 4909 M4865 4839 C4847 4826,4845 4768,4862 4752 C4877 4736,4910 4737,4932 4753 C4983 4792,4917 4876,4865 4839 M4980 4830 C4980 4813,4997 4809,5003 4825 C5007 4834,5004 4840,4995 4840 C4986 4840,4980 4835,4980 4830 M4739 4814 C4723 4801,4721 4795,4730 4784 C4747 4763,4767 4766,4774 4790 C4782 4820,4763 4833,4739 4814 M5020 4801 C5006 4774,5026 4757,5054 4771 C5082 4786,5081 4784,5075 4803 C5068 4825,5032 4824,5020 4801 M4764 4714 C4757 4691,4767 4680,4795 4680 C4822 4680,4832 4691,4819 4707 C4803 4728,4770 4731,4764 4714 M4975 4704 C4966 4678,4969 4672,4988 4667 C5016 4660,5033 4674,5026 4698 C5018 4723,4982 4727,4975 4704 M4873 4673 C4865 4654,4881 4625,4900 4625 C4907 4625,4917 4632,4923 4642 C4932 4655,4930 4662,4917 4674 C4895 4694,4881 4694,4873 4673 M1145 4713 C1142 4709,1140 4699,1140 4689 C1140 4671,995 4439,976 4427 C970 4423,960 4418,955 4416 C941 4411,961 4389,1000 4366 L1032 4347 1025 4384 C1020 4414,1023 4428,1046 4465 C1062 4489,1078 4509,1082 4509 C1101 4510,1329 4356,1334 4340 C1338 4329,1337 4310,1334 4295 C1323 4252,1345 4266,1378 4322 C1395 4351,1417 4387,1426 4402 C1449 4437,1440 4445,1402 4423 C1373 4406,1372 4406,1324 4437 C1297 4454,1240 4489,1197 4516 C1154 4542,1120 4567,1120 4572 C1120 4576,1131 4598,1145 4620 C1165 4652,1176 4660,1200 4660 C1239 4660,1237 4673,1195 4699 C1156 4721,1152 4723,1145 4713 M5288 4444 C5282 4436,5278 4428,5281 4426 C5283 4425,5297 4416,5312 4406 C5343 4387,5348 4359,5323 4339 C5309 4327,5299 4330,5249 4357 C5181 4395,5152 4397,5116 4369 C5094 4352,5090 4340,5090 4303 C5090 4224,5128 4173,5179 4184 C5213 4192,5219 4207,5192 4216 C5133 4235,5112 4259,5125 4293 C5137 4323,5175 4323,5225 4296 C5280 4265,5329 4262,5358 4287 C5393 4316,5391 4384,5355 4429 C5327 4463,5306 4468,5288 4444 M955 4157 C927 4083,890 3974,890 3969 C890 3960,936 3940,943 3946 C946 3949,943 3962,937 3975 C923 4007,945 4064,968 4054 C977 4050,997 4043,1012 4037 C1046 4025,1047 4006,1014 3974 L989 3949 1024 3934 C1072 3914,1083 3915,1070 3939 C1056 3964,1057 3972,1073 3994 C1085 4010,1088 4010,1123 3996 C1143 3987,1160 3974,1160 3965 C1160 3933,1136 3900,1108 3894 C1067 3885,1078 3865,1126 3861 L1167 3858 1199 3946 C1216 3995,1233 4045,1237 4058 L1242 4082 1211 4059 C1181 4037,1179 4037,1137 4053 C1114 4061,1069 4078,1037 4090 C985 4109,980 4114,980 4140 C980 4170,964 4180,955 4157 M5467 4079 C5445 4068,5445 4068,5463 4054 C5474 4046,5486 4039,5491 4037 C5495 4036,5502 4020,5505 4003 C5511 3974,5509 3971,5475 3960 C5423 3943,5406 3952,5411 3995 C5416 4034,5406 4038,5355 4016 C5327 4004,5326 4002,5345 3996 C5362 3990,5390 3953,5390 3935 C5390 3930,5329 3910,5312 3910 C5305 3910,5292 3926,5283 3946 C5269 3980,5269 3983,5289 4004 C5300 4016,5310 4029,5310 4033 C5310 4046,5277 4039,5249 4019 L5221 3999 5256 3897 C5292 3792,5310 3759,5310 3795 C5310 3834,5337 3855,5428 3884 C5514 3911,5520 3912,5538 3896 C5562 3874,5584 3874,5575 3897 C5571 3907,5555 3954,5539 4002 C5523 4050,5505 4090,5500 4090 C5494 4090,5479 4085,5467 4079 M882 3686 C800 3645,757 3540,791 3466 C805 3435,817 3430,849 3441 L874 3450 847 3472 C814 3501,805 3533,820 3571 C853 3651,1014 3648,1056 3567 C1077 3526,1067 3496,1018 3457 C979 3426,978 3424,1001 3419 C1014 3415,1033 3417,1043 3422 C1067 3434,1099 3506,1099 3550 C1100 3654,975 3732,882 3686 M5591 3656 C5576 3635,5562 3631,5489 3625 C5372 3616,5330 3609,5330 3599 C5330 3588,5377 3554,5467 3499 C5507 3475,5540 3452,5540 3449 C5540 3441,5477 3430,5435 3430 C5419 3430,5396 3439,5383 3451 L5360 3473 5360 3449 C5360 3398,5373 3320,5381 3320 C5385 3320,5392 3331,5395 3345 C5404 3380,5424 3388,5527 3395 C5617 3402,5617 3402,5634 3376 C5657 3341,5673 3353,5665 3398 C5656 3446,5641 3461,5542 3521 C5496 3549,5462 3575,5466 3579 C5471 3584,5500 3589,5532 3593 C5582 3597,5593 3595,5610 3577 C5637 3548,5642 3558,5635 3624 C5629 3685,5619 3692,5591 3656 M1030 3205 C1020 3179,991 3171,880 3168 C810 3165,790 3172,790 3196 C790 3204,784 3209,777 3207 C770 3205,765 3195,765 3186 C766 3177,767 3145,768 3115 C769 3073,773 3060,785 3060 C793 3060,800 3066,800 3074 C800 3082,808 3093,819 3099 C842 3111,896 3113,903 3102 C906 3097,909 3063,911 3024 L913 2955 867 2951 C829 2949,819 2952,810 2969 C787 3011,778 2991,785 2917 C793 2833,803 2816,817 2858 C827 2885,833 2888,886 2893 C947 2899,1002 2902,1032 2901 C1042 2900,1055 2888,1061 2875 C1083 2828,1091 2848,1084 2927 C1077 3011,1065 3038,1054 2996 C1047 2967,1020 2956,973 2961 C945 2964,944 2966,942 3034 C938 3110,944 3119,997 3119 C1019 3119,1032 3113,1040 3100 C1062 3058,1072 3078,1066 3152 C1063 3192,1060 3226,1060 3227 C1058 3239,1038 3225,1030 3205 M5370 3136 C5370 3106,5367 3068,5363 3051 C5356 3012,5375 3008,5391 3045 C5402 3068,5407 3070,5480 3070 C5587 3070,5619 3062,5630 3033 C5640 3007,5655 3002,5662 3022 C5664 3029,5667 3065,5668 3102 C5671 3173,5659 3190,5638 3145 C5625 3117,5608 3115,5486 3126 C5423 3132,5416 3135,5403 3161 C5382 3205,5370 3195,5370 3136 M5340 2821 C5323 2755,5317 2720,5323 2720 C5327 2720,5338 2725,5348 2731 C5362 2740,5381 2737,5433 2720 C5470 2708,5499 2696,5497 2693 C5495 2691,5453 2681,5404 2672 C5341 2659,5314 2649,5312 2638 C5310 2629,5337 2599,5379 2565 C5418 2533,5448 2505,5446 2503 C5439 2496,5345 2520,5322 2535 C5310 2543,5300 2559,5300 2570 C5300 2591,5281 2597,5275 2577 C5274 2570,5264 2538,5255 2506 C5246 2474,5240 2445,5243 2442 C5246 2439,5263 2449,5280 2464 C5303 2483,5320 2489,5338 2485 C5353 2483,5387 2477,5415 2474 C5485 2465,5510 2447,5510 2404 C5510 2385,5514 2370,5519 2370 C5527 2370,5560 2463,5560 2486 C5560 2491,5526 2523,5485 2558 C5443 2593,5410 2625,5410 2630 C5410 2638,5481 2656,5558 2666 C5603 2673,5611 2682,5634 2757 C5643 2786,5623 2787,5600 2757 L5582 2735 5508 2758 C5412 2789,5382 2805,5375 2829 C5365 2864,5350 2861,5340 2821 M1110 2665 C1110 2634,1086 2619,987 2589 L909 2566 879 2589 C841 2616,833 2610,850 2567 C868 2520,887 2506,995 2465 C1048 2444,1087 2424,1083 2420 C1078 2416,1049 2406,1018 2397 C967 2383,959 2383,940 2397 C909 2418,905 2407,921 2348 C935 2299,960 2270,960 2303 C960 2330,988 2348,1071 2374 C1116 2388,1156 2400,1160 2400 C1165 2400,1180 2404,1195 2410 C1236 2425,1213 2443,1088 2491 C1028 2514,982 2536,987 2540 C997 2549,1089 2580,1108 2580 C1116 2580,1131 2572,1141 2563 C1168 2539,1175 2554,1157 2597 C1148 2618,1138 2647,1135 2662 C1128 2696,1110 2698,1110 2665 M1280 2227 C1280 2197,1274 2190,1217 2158 C1098 2089,1090 2086,1070 2104 C1052 2120,1029 2125,1030 2112 C1030 2108,1045 2078,1063 2045 C1099 1980,1127 1958,1116 2003 C1108 2033,1118 2040,1237 2102 C1298 2134,1300 2134,1329 2118 C1345 2109,1360 2104,1363 2106 C1368 2112,1306 2233,1290 2250 C1283 2256,1280 2249,1280 2227 M5172 2225 C5063 2183,5028 2051,5106 1974 C5211 1869,5390 1946,5390 2095 C5390 2195,5273 2264,5172 2225 M5142 2178 C5116 2160,5110 2148,5110 2111 C5109 2020,5257 1938,5320 1995 C5347 2019,5346 2082,5318 2122 C5279 2176,5185 2206,5142 2178 M1377 1929 C1310 1907,1270 1848,1270 1775 C1270 1715,1289 1670,1329 1637 C1363 1608,1398 1602,1418 1622 C1441 1645,1431 1660,1391 1660 C1288 1660,1282 1798,1382 1860 C1417 1881,1470 1886,1499 1870 C1524 1856,1537 1813,1532 1760 L1528 1715 1555 1740 C1576 1760,1580 1771,1576 1798 C1561 1889,1459 1956,1377 1929 M4853 1814 C4797 1750,4788 1727,4828 1749 C4860 1766,4872 1762,4923 1713 L4971 1667 4903 1598 L4835 1529 4785 1579 C4737 1627,4735 1631,4747 1660 C4764 1706,4745 1695,4675 1622 C4618 1561,4607 1537,4648 1559 C4659 1565,4675 1570,4684 1570 C4700 1570,4886 1402,4903 1372 C4908 1363,4907 1347,4900 1332 C4894 1318,4891 1304,4894 1301 C4901 1295,5020 1410,5020 1422 C5020 1427,5004 1428,4986 1424 C4956 1418,4946 1422,4911 1455 C4888 1475,4870 1497,4870 1503 C4870 1510,4899 1544,4935 1580 L5000 1644 5046 1598 C5090 1554,5092 1550,5081 1521 C5064 1471,5087 1482,5152 1554 C5212 1620,5217 1639,5168 1614 L5138 1598 5034 1695 C4977 1748,4928 1800,4924 1810 C4921 1820,4923 1838,4929 1848 C4943 1875,4942 1880,4925 1880 C4916 1880,4884 1850,4853 1814 M1700 1654 C1700 1646,1705 1631,1711 1620 C1721 1605,1717 1578,1686 1473 C1650 1347,1647 1300,1675 1300 C1682 1300,1717 1319,1751 1343 C1860 1417,1906 1441,1936 1437 C1978 1433,1971 1452,1913 1498 C1860 1540,1846 1542,1855 1505 C1859 1489,1854 1478,1835 1466 C1810 1450,1809 1450,1774 1482 C1740 1513,1739 1517,1751 1543 C1761 1565,1769 1570,1787 1567 C1827 1559,1821 1575,1764 1623 C1704 1674,1700 1676,1700 1654 M1710 1437 C1705 1414,1703 1393,1705 1391 C1707 1389,1725 1397,1744 1409 C1782 1433,1781 1449,1740 1470 C1722 1478,1719 1475,1710 1437 M3118 1443 C3050 1406,3016 1313,3045 1242 C3090 1128,3220 1095,3308 1175 C3424 1279,3352 1460,3195 1460 C3170 1460,3136 1452,3118 1443 M4212 1320 C4197 1293,4192 1291,4159 1296 C4115 1303,4095 1283,4102 1238 C4106 1212,4101 1201,4078 1182 C4043 1152,4042 1125,4074 1104 C4094 1091,4097 1083,4092 1052 C4085 1006,4105 989,4160 997 C4190 1001,4200 999,4200 988 C4200 971,4240 930,4257 930 C4263 930,4279 942,4292 958 C4311 981,4322 986,4348 982 C4395 975,4420 1000,4409 1045 C4402 1077,4404 1081,4430 1095 C4473 1117,4478 1148,4444 1177 C4422 1196,4416 1210,4415 1243 L4415 1285 4366 1285 C4324 1286,4316 1290,4299 1318 C4273 1360,4236 1361,4212 1320 M4232 1299 C4216 1279,4216 1277,4234 1264 C4257 1247,4260 1247,4279 1259 C4291 1267,4291 1273,4282 1294 C4267 1325,4255 1326,4232 1299 M4126 1264 C4118 1253,4132 1210,4143 1210 C4173 1210,4198 1254,4174 1264 C4156 1271,4131 1271,4126 1264 M4335 1253 C4323 1237,4331 1221,4356 1215 C4383 1208,4399 1220,4399 1247 C4400 1260,4344 1265,4335 1253 M4220 1184 C4181 1154,4204 1090,4254 1090 C4280 1090,4310 1118,4310 1143 C4310 1164,4275 1200,4255 1200 C4246 1200,4231 1192,4220 1184 M4087 1153 C4077 1140,4079 1135,4095 1123 C4112 1111,4116 1111,4127 1126 C4134 1136,4137 1147,4135 1152 C4124 1168,4099 1169,4087 1153 M4379 1156 C4367 1139,4377 1110,4394 1110 C4415 1110,4440 1144,4429 1158 C4416 1174,4392 1173,4379 1156 M4125 1073 C4112 1056,4120 1020,4137 1020 C4165 1020,4183 1036,4176 1053 C4169 1070,4133 1084,4125 1073 M4335 1063 C4322 1047,4331 1020,4351 1014 C4377 1006,4390 1019,4384 1047 C4380 1068,4347 1079,4335 1063 M4224 1019 C4217 1007,4245 960,4259 960 C4265 960,4274 969,4280 981 C4290 999,4289 1005,4276 1016 C4256 1032,4232 1033,4224 1019 M2138 1271 C2120 1246,2112 1242,2081 1247 C2035 1253,2015 1233,2022 1187 C2026 1162,2022 1151,2003 1137 C1974 1114,1973 1075,2000 1056 C2017 1044,2019 1035,2014 1001 C2008 964,2009 959,2031 951 C2044 946,2067 946,2081 950 C2105 957,2111 954,2129 924 C2154 881,2189 878,2218 915 C2235 937,2244 940,2269 935 C2285 931,2308 933,2320 940 C2339 950,2341 957,2335 995 C2331 1023,2332 1040,2338 1040 C2353 1040,2390 1081,2390 1096 C2390 1104,2378 1119,2364 1131 C2344 1149,2340 1159,2345 1186 C2354 1230,2336 1246,2285 1240 C2250 1235,2241 1238,2222 1262 C2189 1303,2164 1305,2138 1271 M2160 1258 C2138 1231,2162 1193,2193 1205 C2220 1216,2208 1270,2180 1270 C2174 1270,2165 1264,2160 1258 M2052 1197 C2055 1170,2094 1160,2103 1185 C2112 1208,2103 1220,2075 1220 C2055 1220,2050 1215,2052 1197 M2254 1200 C2245 1184,2256 1172,2284 1167 C2307 1163,2320 1174,2320 1200 C2320 1213,2261 1212,2254 1200 M2144 1137 C2123 1120,2128 1060,2151 1046 C2180 1028,2224 1050,2228 1083 C2234 1135,2182 1168,2144 1137 M2010 1108 C1999 1094,2014 1070,2034 1070 C2051 1070,2068 1090,2064 1106 C2059 1123,2023 1124,2010 1108 M2300 1101 C2283 1069,2311 1054,2341 1079 C2359 1095,2362 1101,2352 1109 C2333 1125,2310 1121,2300 1101 M2050 1018 C2031 995,2039 980,2069 980 C2102 980,2113 990,2099 1007 C2084 1026,2061 1031,2050 1018 M2255 1013 C2242 996,2251 971,2272 966 C2300 959,2313 971,2305 998 C2300 1018,2266 1028,2255 1013 M2154 977 C2139 965,2140 961,2158 939 C2174 919,2179 917,2193 929 C2215 947,2214 967,2190 980 C2175 987,2165 986,2154 977 M3030 1114 C2993 1092,3057 1032,3140 1009 C3214 989,3317 1017,3364 1069 C3382 1088,3382 1091,3367 1106 C3353 1121,3348 1120,3318 1096 C3245 1041,3151 1040,3082 1094 C3047 1122,3045 1122,3030 1114 M2933 974 C2924 951,2965 913,3037 878 C3171 812,3336 835,3443 935 C3465 956,3468 964,3459 975 C3442 996,3426 993,3400 965 C3313 872,3119 867,3005 955 C2954 993,2942 997,2933 974 M2810 861 C2810 823,2944 732,3041 704 C3118 682,3252 680,3330 699 C3434 724,3605 837,3586 868 C3573 888,3549 881,3506 844 C3432 780,3297 730,3203 730 C3103 730,2967 778,2884 844 C2835 883,2810 889,2810 861 " />
<path d="M5225 5672 C5223 5667,5225 5657,5230 5649 C5251 5616,5238 5589,5151 5494 C5102 5440,5055 5393,5046 5388 C5037 5383,5021 5384,5005 5391 C4956 5413,4966 5389,5030 5330 C5102 5263,5129 5252,5105 5298 C5091 5325,5092 5329,5112 5357 C5178 5445,5191 5441,5187 5332 C5185 5251,5183 5245,5162 5240 C5140 5235,5142 5231,5194 5180 C5252 5123,5276 5119,5245 5171 C5225 5206,5210 5372,5226 5383 C5232 5386,5286 5394,5348 5400 C5447 5411,5462 5410,5484 5396 C5516 5375,5520 5375,5520 5399 C5520 5409,5506 5429,5489 5444 C5454 5473,5420 5476,5306 5459 C5211 5445,5201 5454,5252 5508 C5290 5549,5296 5551,5332 5545 C5358 5541,5369 5543,5365 5549 C5353 5571,5229 5679,5225 5672 " />
<path d="M1690 811 C1690 806,1696 796,1705 790 C1726 771,1723 722,1693 633 C1651 508,1635 481,1595 474 C1575 470,1560 463,1560 459 C1560 447,1633 409,1655 409 C1664 409,1714 445,1765 490 C1817 534,1861 570,1864 570 C1867 570,1870 508,1870 432 L1870 295 1915 267 C1972 233,1987 232,1966 264 C1957 278,1950 297,1950 307 C1950 326,2058 521,2086 551 C2095 561,2118 570,2138 571 C2174 574,2173 575,2082 622 C1990 669,1976 671,2004 634 C2027 604,2023 582,1975 496 C1897 352,1898 351,1905 532 C1909 619,1908 689,1903 689 C1898 689,1846 646,1787 594 C1728 541,1680 503,1680 508 C1680 522,1748 680,1765 707 C1775 722,1790 730,1810 730 C1857 730,1845 746,1775 779 C1739 796,1705 812,1700 815 C1694 817,1690 816,1690 811 " />
<path d="M4667 809 C4613 783,4490 706,4490 697 C4490 692,4502 691,4517 694 C4533 698,4552 695,4562 687 C4584 671,4710 460,4710 439 C4710 431,4703 414,4694 402 C4669 366,4691 370,4776 418 C4875 475,4885 483,4898 519 C4916 570,4868 630,4809 630 C4790 630,4790 630,4810 662 C4838 709,4835 744,4800 779 C4766 813,4705 827,4667 809 M4640 764 C4629 755,4620 744,4620 740 C4620 724,4692 610,4701 610 C4707 610,4725 623,4741 640 C4778 676,4774 710,4729 752 C4696 783,4669 787,4640 764 M4730 594 C4724 590,4720 582,4720 574 C4720 555,4779 460,4791 460 C4796 460,4812 471,4826 485 C4855 514,4852 552,4819 582 C4800 599,4750 606,4730 594 " />
<path d="M4332 635 C4290 617,4254 597,4252 591 C4250 585,4263 579,4281 578 C4313 575,4315 573,4317 529 L4320 483 4263 461 L4206 439 4182 462 C4143 498,4136 519,4154 539 C4178 566,4162 570,4116 550 C4093 539,4067 528,4057 525 C4029 517,4037 500,4069 500 C4095 500,4116 480,4221 362 C4289 285,4354 221,4368 217 L4393 210 4386 403 C4379 587,4380 597,4399 623 C4433 668,4414 672,4332 635 M4272 433 C4251 424,4233 415,4231 413 C4229 412,4250 383,4278 349 L4330 288 4330 359 C4330 398,4325 434,4320 440 C4313 446,4297 444,4272 433 " />
<path d="M2240 553 C2240 550,2251 534,2264 518 C2278 502,2287 483,2285 477 C2282 470,2264 411,2245 345 C2225 280,2204 220,2198 213 C2192 206,2173 200,2156 199 C2137 199,2129 196,2135 190 C2150 175,2409 97,2424 103 C2437 108,2454 158,2445 167 C2442 170,2429 165,2415 156 C2391 140,2386 140,2330 157 C2295 167,2270 180,2270 188 C2270 195,2277 226,2285 256 L2301 311 2338 305 C2358 301,2384 288,2397 274 C2409 261,2421 249,2424 250 C2429 250,2449 318,2449 337 C2449 347,2444 346,2427 335 C2408 323,2396 322,2366 330 C2345 336,2326 347,2323 355 C2315 375,2348 480,2365 486 C2383 493,2479 462,2502 442 C2512 433,2520 416,2520 404 C2520 392,2526 377,2534 370 C2546 360,2550 362,2555 384 C2559 399,2558 425,2553 442 C2545 471,2538 476,2474 493 C2436 503,2370 522,2327 535 C2242 562,2240 562,2240 553 " />
<path d="M3882 484 C3867 479,3685 437,3622 424 C3592 417,3593 400,3624 400 C3660 400,3675 369,3699 245 C3711 184,3723 127,3726 117 C3729 106,3720 90,3704 75 C3689 61,3679 47,3682 43 C3691 35,3852 73,3853 84 C3854 90,3841 97,3825 99 C3792 105,3795 97,3754 283 C3740 349,3731 405,3735 408 C3744 417,3831 439,3861 439 C3880 439,3897 429,3919 402 C3942 374,3952 368,3961 377 C3969 385,3966 399,3946 434 C3916 485,3907 492,3882 484 " />
<path d="M2970 0 L2975 0C2977 0,2982 0,2985 0 L2990 0L3000 0 L2999 7C2999 11,3002 31,3005 52 C3009 73,3008 90,3004 90 C2999 89,2986 80,2974 69 C2954 51,2944 49,2895 55 C2847 61,2840 65,2840 83 C2840 95,2848 162,2859 231 C2869 301,2880 363,2884 368 C2887 374,2904 381,2921 385 C2938 388,2948 395,2943 399 C2938 404,2897 412,2850 418 C2804 425,2764 427,2761 424 C2758 421,2768 408,2784 396 L2812 373 2795 229 C2785 149,2774 81,2771 78 C2767 74,2743 74,2716 77 C2678 81,2666 87,2659 105 C2655 117,2646 130,2641 133 C2636 137,2629 129,2626 117 C2622 105,2620 83,2620 69 C2620 44,2622 44,2687 42 C2724 42,2798 35,2852 27 C2905 20,2951 11,2954 7 L2960 0" />
<path d="M3330 0 L3340 0 L3350 0 L3350 2C3350 3,3370 70,3395 150 C3419 229,3446 311,3455 331 C3464 351,3482 372,3496 378 C3509 384,3520 394,3520 401 C3520 409,3505 410,3473 406 C3448 402,3404 399,3376 399 C3333 399,3327 397,3341 387 C3350 380,3365 370,3375 364 C3389 356,3390 349,3380 312 C3372 282,3363 269,3351 269 C3340 269,3312 267,3286 263 C3242 257,3240 258,3229 286 C3223 302,3216 326,3213 341 C3209 361,3212 368,3230 372 C3242 376,3249 383,3245 388 C3242 393,3210 397,3175 396 C3139 394,3107 391,3104 387 C3100 384,3112 374,3131 367 C3162 353,3169 341,3234 181 C3272 87,3307 8,3311 5 L3320 0M3264 205 C3271 174,3309 85,3314 91 C3316 93,3327 125,3338 162 L3360 230 3310 230 C3262 230,3260 228,3264 205 " />
</g>
<g id="layer102" fill="#fbfbfb" fill-rule="evenodd">
<path d="M2960 0 L2954 7C2951 11,2905 20,2852 27 C2798 35,2724 42,2687 42 C2622 44,2620 44,2620 69 C2620 83,2622 105,2626 117 C2629 129,2636 137,2641 133 C2646 130,2655 117,2659 105 C2666 87,2678 81,2716 77 C2743 74,2767 74,2771 78 C2774 81,2785 149,2795 229 L2812 373 2784 396 C2768 408,2758 421,2761 424 C2764 427,2804 425,2850 418 C2897 412,2938 404,2943 399 C2948 395,2938 388,2921 385 C2904 381,2887 374,2884 368 C2880 363,2869 301,2859 231 C2848 162,2840 95,2840 83 C2840 65,2847 61,2895 55 C2944 49,2954 51,2974 69 C2986 80,2999 89,3004 90 C3008 90,3009 73,3005 52 C3002 31,2999 11,2999 7 L3000 0L3000 0 L3110 0C3170 0,3222 0,3225 0 C3227 0,3250 0,3275 0 L3320 0L3320 0 L3311 5C3307 8,3272 87,3234 181 C3169 341,3162 353,3131 367 C3112 374,3100 384,3104 387 C3107 391,3139 394,3175 396 C3210 397,3242 393,3245 388 C3249 383,3242 376,3230 372 C3212 368,3209 361,3213 341 C3216 326,3223 302,3229 286 C3240 258,3242 257,3286 263 C3312 267,3340 269,3351 269 C3363 269,3372 282,3380 312 C3390 349,3389 356,3375 364 C3365 370,3350 380,3341 387 C3327 397,3333 399,3376 399 C3404 399,3448 402,3473 406 C3505 410,3520 409,3520 401 C3520 394,3509 384,3496 378 C3482 372,3464 351,3455 331 C3446 311,3419 229,3395 150 C3370 70,3350 3,3350 2 L3350 0L3350 0 L4875 0L6400 0 6400 3200 L6400 6400 4950 6400 C4152 6400,3497 6400,3495 6400 L3490 6400L3490 6400 L3519 6391C3536 6386,3561 6374,3577 6364 C3592 6354,3610 6339,3617 6330 C3624 6322,3639 6298,3650 6277 C3663 6252,3670 6221,3670 6181 C3670 6129,3665 6116,3637 6079 C3619 6055,3592 6027,3578 6017 C3563 6006,3529 5995,3503 5992 C3476 5990,3435 5993,3412 5999 C3388 6005,3353 6025,3333 6042 C3313 6060,3290 6089,3283 6107 C3276 6124,3270 6163,3270 6193 C3270 6230,3277 6260,3293 6290 C3308 6318,3332 6344,3360 6361 C3385 6376,3419 6391,3437 6394 L3470 6400L3470 6400 L3425 6400C3400 6400,3377 6400,3375 6400 C3372 6400,3316 6400,3250 6400 L3130 6400L3130 6400 L3130 6392C3130 6388,3124 6383,3118 6381 C3112 6379,3099 6369,3090 6360 C3075 6345,3073 6326,3077 6213 C3080 6143,3086 6075,3090 6062 C3095 6050,3110 6037,3124 6034 C3138 6030,3150 6023,3150 6018 C3150 6014,3137 6009,3122 6009 C3107 6009,3064 6006,3027 6003 C2983 5999,2960 6000,2960 6007 C2960 6013,2974 6022,2991 6028 L3022 6039 3015 6177 C3012 6253,3006 6322,3003 6332 C3000 6342,2984 6357,2968 6365 C2951 6374,2939 6383,2941 6385 C2943 6387,2971 6391,3002 6394 L3060 6400L3060 6400 L3055 6400C3052 6400,2363 6400,1525 6400 L0 6400 0 3200 L0 0 1480 0 L2960 0M2677 6359 C2632 6348,2565 6335,2530 6329 C2454 6317,2435 6304,2478 6295 C2494 6291,2512 6283,2517 6276 C2530 6260,2572 6027,2568 5998 C2566 5985,2554 5970,2542 5965 C2530 5959,2520 5949,2520 5942 C2520 5927,2515 5927,2620 5948 C2705 5965,2728 5982,2677 5988 C2662 5989,2646 5998,2641 6008 C2629 6032,2585 6298,2592 6305 C2601 6315,2671 6329,2708 6329 C2733 6329,2748 6321,2775 6292 C2815 6248,2827 6254,2811 6309 C2792 6376,2774 6383,2677 6359 M3956 6280 L3982 6251 3945 6113 C3924 6037,3904 5971,3900 5966 C3896 5962,3872 5964,3847 5970 C3809 5980,3799 5987,3790 6012 C3777 6051,3764 6039,3754 5981 C3747 5937,3748 5937,3774 5942 C3808 5948,4055 5886,4078 5865 C4106 5841,4114 5846,4125 5895 C4138 5949,4133 5956,4103 5928 C4082 5909,4077 5908,4030 5919 C4002 5926,3977 5935,3974 5940 C3969 5949,4027 6195,4041 6222 C4046 6232,4064 6243,4080 6246 C4097 6249,4109 6257,4107 6262 C4103 6273,3982 6310,3950 6310 C3931 6310,3931 6307,3956 6280 M2212 6244 C2040 6188,1988 6160,2059 6160 C2074 6160,2091 6154,2097 6147 C2109 6130,2190 5901,2190 5882 C2190 5873,2180 5855,2168 5843 C2156 5830,2148 5817,2151 5815 C2161 5804,2348 5871,2373 5894 C2410 5928,2409 5972,2370 6010 C2354 6026,2334 6040,2325 6040 C2304 6040,2305 6044,2334 6073 C2366 6105,2375 6141,2358 6175 C2334 6223,2259 6259,2212 6244 M2170 6196 C2160 6183,2191 6067,2210 6046 C2222 6033,2279 6068,2290 6095 C2300 6121,2289 6161,2264 6192 C2247 6213,2184 6216,2170 6196 M2225 6011 C2222 6006,2229 5975,2241 5941 C2263 5873,2283 5863,2320 5900 C2348 5928,2345 5973,2315 5999 C2289 6020,2234 6027,2225 6011 M4331 6169 L4352 6138 4310 6040 C4242 5883,4229 5864,4191 5867 C4174 5868,4160 5865,4160 5859 C4160 5850,4301 5780,4321 5780 C4326 5780,4320 5793,4309 5808 L4287 5837 4315 5898 C4330 5932,4343 5960,4344 5960 C4346 5960,4385 5941,4433 5919 L4519 5879 4494 5822 C4465 5758,4455 5748,4421 5756 C4369 5769,4408 5735,4483 5701 C4563 5665,4589 5665,4551 5700 C4539 5711,4530 5726,4530 5733 C4530 5752,4629 5972,4647 5992 C4656 6002,4675 6010,4691 6010 C4736 6010,4725 6022,4647 6057 C4558 6097,4541 6099,4568 6064 C4590 6036,4589 6026,4549 5949 C4538 5927,4526 5911,4522 5913 C4518 5915,4480 5933,4437 5953 C4394 5973,4360 5992,4360 5995 C4360 6007,4413 6105,4423 6112 C4429 6116,4445 6119,4457 6119 C4469 6119,4479 6123,4479 6127 C4479 6135,4337 6200,4320 6200 C4314 6200,4319 6186,4331 6169 M1800 6082 C1761 6062,1730 6042,1730 6038 C1730 6034,1746 6029,1767 6028 C1804 6025,1806 6022,1856 5925 C1885 5870,1913 5808,1920 5787 C1932 5752,1931 5747,1909 5724 C1891 5705,1890 5700,1902 5700 C1924 5700,2070 5770,2070 5781 C2070 5785,2052 5790,2031 5790 L1993 5790 1931 5917 C1897 5987,1869 6048,1869 6053 C1869 6058,1879 6074,1890 6090 C1910 6120,1910 6120,1890 6120 C1879 6120,1838 6103,1800 6082 M4830 5942 C4830 5938,4837 5926,4845 5915 C4853 5904,4859 5889,4859 5880 C4859 5872,4824 5813,4780 5750 C4704 5637,4701 5635,4666 5636 C4646 5636,4630 5633,4630 5629 C4630 5621,4842 5472,4868 5462 C4881 5457,4919 5494,4919 5512 C4919 5517,4904 5518,4886 5514 C4858 5509,4843 5514,4801 5541 C4773 5559,4750 5578,4750 5582 C4749 5595,4814 5689,4826 5693 C4843 5700,4910 5641,4910 5619 C4910 5589,4925 5596,4951 5637 C4985 5692,4985 5692,4951 5685 C4922 5678,4904 5686,4851 5726 C4844 5731,4896 5814,4918 5833 C4938 5851,4939 5850,4999 5810 C5058 5770,5060 5768,5060 5724 C5060 5664,5085 5663,5097 5722 C5102 5745,5104 5768,5102 5772 C5097 5783,4864 5938,4845 5945 C4836 5947,4830 5946,4830 5942 M1512 5916 C1474 5897,1340 5810,1340 5804 C1340 5801,1358 5800,1381 5801 C1428 5804,1421 5811,1515 5664 C1583 5558,1589 5540,1565 5520 C1547 5505,1545 5490,1561 5490 C1581 5490,1719 5581,1744 5611 C1758 5628,1769 5651,1769 5663 C1769 5704,1716 5750,1669 5750 C1648 5750,1647 5750,1663 5768 C1673 5779,1683 5803,1686 5823 C1691 5855,1688 5863,1656 5894 C1627 5923,1612 5930,1580 5930 C1558 5930,1527 5923,1512 5916 M1493 5876 C1471 5858,1480 5827,1525 5767 C1559 5720,1560 5719,1585 5736 C1628 5764,1630 5828,1589 5869 C1567 5892,1517 5896,1493 5876 M1612 5714 C1602 5710,1590 5704,1585 5699 C1572 5686,1640 5580,1661 5580 C1682 5580,1710 5616,1710 5646 C1710 5687,1652 5727,1612 5714 M3002 5860 C2377 5801,1838 5566,1390 5155 C1080 4871,810 4462,686 4085 C671 4041,655 3996,650 3985 C634 3951,591 3762,570 3630 C541 3453,527 3245,534 3105 C545 2886,603 2542,641 2467 C646 2458,650 2443,650 2434 C650 2411,703 2257,745 2159 C1012 1532,1513 1028,2140 754 C2511 591,2979 509,3365 539 C3749 568,4046 648,4378 811 C4906 1070,5331 1495,5590 2025 C5655 2158,5757 2418,5774 2495 C5798 2600,5812 2668,5825 2745 C5834 2794,5842 2846,5845 2860 C5867 2986,5870 3330,5850 3490 C5797 3924,5655 4316,5425 4665 C5218 4979,4934 5257,4610 5463 C4403 5595,4036 5745,3790 5800 C3548 5853,3206 5880,3002 5860 M2973 5820 C2771 5800,2657 5778,2465 5722 C1786 5525,1207 5053,873 4425 C803 4293,701 4042,685 3964 C683 3953,670 3905,655 3856 C544 3476,546 2904,660 2525 C724 2310,744 2251,790 2148 C998 1680,1321 1295,1740 1015 C2443 545,3324 442,4120 736 C4723 960,5250 1430,5540 2005 C5639 2201,5677 2298,5725 2477 C5789 2715,5787 2703,5819 3011 C5865 3446,5753 3990,5531 4415 C5401 4663,5267 4842,5055 5055 C4721 5388,4371 5596,3918 5728 C3631 5812,3258 5848,2973 5820 M3169 5671 C3116 5661,3100 5637,3116 5595 C3124 5574,3137 5575,3144 5598 C3151 5619,3190 5640,3224 5640 C3286 5640,3333 5545,3310 5468 C3293 5411,3266 5388,3221 5391 C3188 5394,3184 5397,3181 5427 C3179 5454,3183 5461,3204 5471 C3245 5490,3234 5498,3164 5501 C3097 5505,3072 5495,3103 5478 C3114 5472,3120 5455,3120 5429 C3120 5399,3125 5387,3142 5378 C3236 5328,3340 5362,3375 5455 C3390 5493,3391 5507,3381 5539 C3352 5635,3263 5690,3169 5671 M2817 5629 C2794 5623,2764 5616,2752 5613 C2725 5608,2731 5590,2760 5590 C2786 5590,2791 5578,2806 5485 C2824 5372,2824 5362,2793 5346 C2750 5324,2782 5317,2865 5331 C2936 5343,2959 5361,2912 5368 C2886 5371,2884 5377,2864 5492 L2848 5584 2874 5605 C2917 5639,2894 5648,2817 5629 M3706 5582 C3694 5561,3663 5509,3639 5466 C3605 5405,3587 5383,3561 5372 C3519 5355,3528 5346,3604 5326 C3672 5309,3688 5313,3664 5340 C3647 5359,3651 5390,3672 5407 C3680 5412,3701 5413,3727 5407 C3767 5399,3770 5396,3770 5363 C3770 5336,3765 5326,3750 5322 C3721 5315,3725 5301,3757 5294 C3772 5291,3802 5284,3823 5278 C3873 5265,3879 5273,3847 5307 C3825 5330,3817 5355,3800 5453 C3780 5567,3761 5620,3740 5620 C3734 5620,3719 5603,3706 5582 M3720 5487 C3695 5446,3695 5440,3720 5438 C3731 5437,3745 5436,3752 5436 C3767 5434,3765 5481,3750 5505 C3741 5517,3736 5514,3720 5487 M4180 5565 C4180 5557,4184 5548,4190 5545 C4211 5531,4197 5484,4148 5401 C4069 5268,4053 5250,4019 5250 C4003 5250,3990 5246,3990 5242 C3990 5232,4151 5148,4158 5154 C4160 5157,4155 5168,4146 5178 C4137 5188,4130 5209,4130 5224 C4130 5261,4229 5427,4243 5413 C4246 5410,4246 5345,4242 5268 C4239 5188,4240 5130,4245 5130 C4250 5130,4300 5169,4355 5216 C4423 5275,4455 5298,4457 5287 C4461 5270,4395 5123,4372 5097 C4363 5087,4346 5080,4333 5080 C4295 5080,4306 5067,4372 5032 C4450 4992,4468 4990,4440 5026 C4429 5040,4420 5061,4420 5071 C4420 5097,4498 5301,4516 5321 C4525 5331,4543 5340,4557 5341 C4599 5346,4593 5365,4543 5387 C4486 5412,4484 5411,4381 5323 C4340 5288,4300 5260,4292 5260 C4279 5260,4278 5279,4282 5385 L4287 5511 4243 5545 C4196 5582,4180 5587,4180 5565 M2350 5515 C2334 5507,2313 5489,2304 5475 C2288 5451,2288 5448,2304 5424 C2323 5395,2340 5400,2340 5434 C2340 5463,2383 5500,2417 5500 C2484 5500,2547 5414,2536 5336 C2526 5258,2462 5231,2391 5276 C2360 5296,2351 5285,2370 5251 C2390 5216,2450 5210,2514 5238 C2572 5264,2599 5308,2599 5375 C2599 5433,2577 5473,2525 5506 C2483 5534,2397 5538,2350 5515 M1910 5283 C1910 5274,1924 5213,1941 5147 C1967 5048,1970 5024,1961 5003 C1954 4989,1951 4974,1955 4971 C1962 4964,2073 5024,2077 5038 C2079 5044,2068 5050,2053 5051 C2016 5056,1998 5104,2026 5125 C2076 5162,2088 5164,2114 5140 C2133 5122,2137 5113,2129 5099 C2107 5058,2124 5060,2195 5105 C2255 5144,2258 5155,2207 5151 C2181 5150,2155 5164,2072 5224 C1998 5278,1961 5300,1940 5300 C1918 5300,1910 5295,1910 5283 M1991 5190 C2003 5144,2008 5142,2040 5168 L2062 5186 2026 5208 C2006 5220,1987 5230,1985 5230 C1982 5230,1985 5212,1991 5190 M3140 5274 C3123 5259,3110 5242,3110 5235 C3110 5226,3084 5220,3027 5215 C2731 5191,2442 5087,2168 4908 C2067 4842,2042 4830,2019 4835 C1985 4842,1935 4819,1919 4788 C1912 4776,1909 4748,1912 4724 L1917 4682 1821 4681 C1768 4681,1721 4680,1717 4680 C1713 4680,1710 4652,1710 4619 C1709 4559,1709 4557,1656 4501 C1492 4327,1351 4079,1276 3830 C1241 3711,1228 3666,1223 3640 C1189 3443,1178 3239,1191 3050 C1196 2964,1205 2890,1210 2885 C1215 2880,1220 2851,1220 2822 C1220 2789,1223 2771,1230 2775 C1236 2778,1240 2764,1239 2739 C1239 2658,1324 2412,1412 2235 C1508 2042,1611 1899,1774 1731 C2060 1437,2415 1253,2805 1196 C2956 1174,3055 1171,3055 1189 C3055 1200,3034 1207,2982 1216 C2528 1292,2116 1637,1936 2092 C1910 2156,1860 2339,1860 2367 C1859 2377,1891 2379,2006 2377 L2152 2375 2166 2320 C2284 1854,2713 1520,3196 1520 C3491 1519,3732 1616,3941 1817 C4085 1955,4183 2121,4229 2303 L4247 2375 4393 2377 C4558 2380,4547 2387,4529 2297 C4486 2092,4418 1926,4310 1762 C4118 1469,3802 1270,3464 1226 C3358 1212,3318 1197,3354 1183 C3364 1180,3423 1182,3485 1189 C4087 1253,4594 1572,4910 2085 C5001 2233,5122 2521,5155 2671 C5158 2681,5162 2700,5165 2712 C5168 2724,5172 2746,5174 2760 C5176 2773,5183 2816,5189 2854 C5225 3072,5220 3389,5179 3588 C5114 3901,4921 4291,4720 4513 C4689 4547,4684 4561,4680 4617 L4675 4682 4592 4681 L4510 4681 4516 4724 C4519 4749,4517 4776,4510 4789 C4496 4815,4436 4843,4410 4835 C4398 4831,4367 4844,4323 4873 C4058 5042,3657 5187,3375 5215 C3310 5222,3301 5226,3267 5261 C3221 5308,3184 5312,3140 5274 M3155 5237 C3134 5207,3136 5186,3159 5165 C3186 5141,3230 5148,3249 5181 C3262 5204,3262 5210,3246 5233 C3224 5267,3176 5269,3155 5237 M3290 5175 C3290 5151,3231 5110,3195 5110 C3163 5110,3110 5149,3110 5172 C3110 5201,2800 5151,2621 5093 C2508 5057,2309 4958,2189 4879 L2084 4809 2084 4745 L2085 4681 2174 4682 C2226 4682,2265 4678,2267 4672 C2269 4666,2294 4674,2322 4690 C2521 4796,2874 4848,3310 4836 C3635 4827,3848 4794,4035 4724 C4125 4689,4144 4686,4235 4685 L4336 4685 4336 4730 C4336 4754,4339 4784,4343 4795 C4349 4811,4340 4821,4282 4856 C4050 4999,3708 5125,3417 5175 C3308 5193,3290 5193,3290 5175 M1960 4780 C1935 4755,1934 4728,1958 4706 C1995 4673,2060 4699,2060 4747 C2060 4766,2022 4800,2000 4800 C1989 4800,1971 4791,1960 4780 M2932 4795 C2911 4792,2852 4785,2800 4779 C2653 4763,2461 4712,2367 4665 L2285 4625 2282 4567 C2280 4535,2281 4510,2284 4510 C2288 4510,2300 4516,2312 4524 C2403 4583,2681 4650,2913 4669 C3072 4682,3337 4682,3495 4669 C3721 4651,3975 4598,4070 4549 C4091 4538,4113 4530,4119 4530 C4125 4530,4130 4553,4130 4585 L4130 4641 4067 4670 C3986 4707,3801 4755,3661 4774 C3550 4789,3008 4805,2932 4795 M4385 4781 C4352 4742,4374 4690,4423 4690 C4463 4690,4480 4705,4480 4741 C4480 4794,4417 4821,4385 4781 M1755 4643 C1752 4639,1750 4610,1750 4578 L1750 4520 1990 4520 L2230 4520 2225 4580 L2220 4640 1990 4645 C1863 4647,1757 4647,1755 4643 M3052 4640 C2739 4617,2546 4582,2399 4520 C2304 4481,2292 4473,2305 4461 C2317 4448,2480 4394,2532 4384 L2570 4377 2570 4442 L2570 4507 2614 4518 C2638 4524,2661 4530,2664 4530 C2667 4530,2670 4491,2670 4445 C2670 4398,2671 4360,2673 4360 C2680 4360,3033 4440,3070 4450 L3108 4460 3104 4528 C3098 4613,3105 4621,3196 4622 C3297 4625,3310 4615,3310 4530 C3310 4492,3314 4458,3319 4455 C3324 4452,3416 4430,3524 4406 L3720 4363 3720 4441 C3720 4531,3725 4537,3788 4520 L3830 4509 3830 4444 C3830 4399,3833 4380,3842 4380 C3849 4380,3895 4391,3945 4404 C4044 4431,4131 4468,4124 4480 C4117 4492,3944 4556,3875 4573 C3782 4596,3620 4618,3457 4629 C3376 4635,3283 4642,3250 4645 C3217 4647,3128 4645,3052 4640 M4170 4585 L4170 4520 4405 4520 L4640 4520 4640 4585 L4640 4650 4405 4650 L4170 4650 4170 4585 M3145 4577 C3142 4570,3139 4533,3137 4495 L3135 4425 3095 4417 C3073 4412,2969 4388,2865 4364 C2760 4339,2667 4319,2657 4319 C2637 4320,2637 4319,2639 4411 C2640 4448,2637 4480,2632 4483 C2600 4503,2599 4479,2602 3603 L2605 2733 2725 2761 C2791 2777,2919 2806,3010 2827 L3175 2865 3177 3727 C3179 4488,3178 4590,3165 4590 C3156 4590,3147 4584,3145 4577 M2877 4176 C2749 4134,2718 4114,2686 4052 C2666 4013,2658 3907,2671 3850 C2692 3754,2739 3737,2879 3775 C3056 3822,3100 3867,3108 4005 C3117 4187,3054 4234,2877 4176 M2887 4140 C2735 4091,2699 4051,2700 3931 C2700 3806,2725 3778,2817 3797 C2941 3823,2983 3840,3027 3884 L3070 3927 3070 4017 C3070 4124,3066 4136,3028 4155 C2991 4174,2994 4174,2887 4140 M2899 3744 C2785 3713,2738 3689,2705 3646 C2643 3565,2653 3365,2721 3329 C2756 3310,2800 3314,2902 3344 C3059 3391,3109 3449,3109 3587 C3110 3694,3078 3752,3015 3765 C3001 3767,2949 3758,2899 3744 M2895 3706 C2741 3662,2708 3628,2701 3504 C2697 3415,2712 3366,2749 3355 C2776 3346,2967 3395,3000 3418 C3054 3458,3070 3495,3070 3591 C3070 3673,3067 3682,3045 3705 C3014 3735,3000 3735,2895 3706 M2854 3292 C2706 3244,2666 3193,2666 3050 C2666 2880,2713 2852,2904 2905 C3054 2946,3110 3011,3110 3147 C3110 3227,3093 3278,3061 3303 C3029 3328,2952 3323,2854 3292 M2889 3265 C2739 3220,2700 3176,2700 3050 C2700 2968,2718 2923,2754 2914 C2782 2907,2946 2950,2992 2976 C3052 3012,3070 3051,3070 3151 C3070 3233,3067 3242,3045 3265 C3013 3296,2990 3296,2889 3265 M3220 3731 L3220 2873 3272 2860 C3301 2854,3424 2826,3545 2799 C3666 2771,3772 2747,3782 2744 C3799 2738,3800 2784,3800 3608 C3800 4345,3797 4478,3785 4483 C3763 4491,3760 4480,3760 4398 C3760 4327,3758 4320,3740 4320 C3730 4320,3647 4337,3558 4359 C3468 4380,3368 4404,3335 4412 L3275 4425 3272 4500 C3269 4574,3262 4590,3235 4590 C3221 4590,3220 4487,3220 3731 M3338 4183 C3305 4157,3290 4107,3290 4021 C3290 3877,3341 3822,3523 3774 C3632 3745,3665 3747,3701 3786 C3722 3809,3725 3821,3728 3918 C3731 4019,3729 4027,3704 4065 C3669 4118,3628 4144,3525 4174 C3426 4203,3368 4206,3338 4183 M3372 4158 C3335 4135,3330 4116,3330 4023 C3330 3933,3331 3929,3361 3894 C3400 3850,3424 3837,3522 3811 C3666 3771,3692 3785,3698 3905 C3705 4041,3667 4091,3525 4134 C3409 4169,3392 4171,3372 4158 M3372 3763 C3316 3744,3289 3687,3290 3587 C3290 3451,3340 3390,3491 3345 C3683 3288,3730 3316,3730 3490 C3730 3644,3697 3684,3528 3735 C3433 3765,3395 3771,3372 3763 M3355 3705 C3335 3686,3329 3669,3328 3632 C3323 3460,3349 3424,3511 3378 C3630 3345,3663 3347,3685 3390 C3706 3431,3704 3544,3680 3595 C3656 3648,3611 3676,3499 3706 C3388 3735,3385 3735,3355 3705 M3335 3299 C3299 3269,3287 3219,3291 3124 C3295 3053,3300 3036,3323 3005 C3364 2952,3414 2923,3506 2900 C3690 2854,3730 2880,3729 3052 C3729 3158,3710 3207,3650 3247 C3604 3278,3502 3309,3425 3315 C3369 3319,3356 3316,3335 3299 M3355 3265 C3332 3242,3330 3233,3330 3151 C3330 3048,3347 3010,3414 2973 C3465 2944,3621 2906,3650 2915 C3680 2924,3700 2978,3700 3055 C3700 3176,3657 3222,3504 3266 C3399 3295,3385 3295,3355 3265 M1666 4461 C1562 4342,1453 4172,1396 4040 C1380 4004,1362 3961,1354 3945 C1320 3867,1281 3721,1244 3525 C1213 3369,1217 2941,1249 2865 C1254 2854,1265 2800,1274 2745 C1316 2497,1455 2184,1628 1953 C1710 1842,1899 1652,2005 1573 C2114 1491,2246 1413,2360 1363 C2455 1321,2688 1245,2697 1254 C2699 1256,2668 1273,2628 1292 C2412 1392,2193 1582,2052 1791 C1959 1928,1850 2177,1850 2250 C1850 2265,1846 2281,1841 2284 C1836 2287,1829 2309,1825 2334 C1819 2377,1817 2378,1781 2381 L1745 2385 1742 2481 L1739 2578 1772 2581 L1805 2585 1807 3532 L1810 4480 1765 4480 C1740 4480,1715 4484,1710 4490 C1703 4496,1688 4487,1666 4461 M4680 4490 C4680 4484,4666 4480,4650 4480 C4632 4480,4619 4474,4619 4467 C4619 4458,4619 2828,4619 2607 C4619 2594,4628 2590,4655 2590 L4690 2590 4690 2490 L4690 2390 4637 2389 L4585 2389 4566 2297 C4542 2173,4546 2188,4505 2070 C4390 1745,4181 1490,3895 1327 C3835 1293,3863 1299,3985 1347 C4447 1528,4819 1900,5018 2380 C5065 2492,5118 2671,5136 2775 C5169 2965,5179 3060,5179 3184 C5180 3313,5162 3517,5149 3542 C5144 3551,5140 3575,5140 3595 C5140 3614,5135 3638,5130 3647 C5125 3657,5103 3723,5080 3795 C5013 4007,4899 4222,4748 4422 C4690 4499,4680 4509,4680 4490 M1845 4471 C1842 4466,1842 4042,1845 3528 L1849 2595 2009 2592 L2170 2589 2170 3534 L2170 4480 2010 4480 C1922 4480,1847 4476,1845 4471 M1995 4013 C1992 4009,1990 3937,1990 3853 L1990 3700 1945 3700 C1903 3700,1900 3697,1900 3675 C1900 3652,1931 3553,1949 3519 C1958 3502,1972 3444,1969 3432 C1968 3428,1963 3426,1957 3428 C1929 3436,1900 3419,1900 3394 C1900 3372,1903 3370,1944 3370 L1989 3370 1992 3208 C1994 3091,1998 3045,2007 3042 C2016 3039,2020 3078,2022 3201 L2025 3365 2068 3368 C2107 3370,2110 3373,2108 3397 C2105 3417,2098 3423,2076 3425 C2060 3427,2046 3430,2043 3432 C2041 3434,2053 3476,2070 3524 C2086 3572,2103 3631,2106 3655 L2112 3698 2068 3701 L2025 3705 2022 3862 C2020 4005,2014 4038,1995 4013 M1956 3602 C1964 3581,1978 3541,1987 3512 C1995 3483,2006 3462,2010 3465 C2014 3467,2023 3493,2030 3521 C2037 3549,2048 3584,2056 3598 C2063 3613,2069 3628,2069 3632 C2069 3636,2040 3640,2005 3640 L1940 3640 1956 3602 M2210 3530 L2210 2580 2240 2580 L2270 2580 2267 2482 L2265 2385 2227 2381 C2192 2378,2190 2377,2195 2351 C2229 2200,2314 2036,2428 1901 C2538 1772,2766 1631,2934 1589 C3349 1486,3777 1632,4027 1965 C4086 2043,4164 2200,4189 2291 C4214 2382,4214 2390,4190 2390 C4171 2390,4170 2396,4170 2490 C4170 2583,4171 2590,4190 2590 C4209 2590,4210 2596,4210 3535 C4210 4193,4206 4480,4199 4480 C4193 4479,4172 4466,4151 4450 C4111 4419,4016 4382,3902 4355 L3830 4337 3830 3539 C3830 2750,3830 2740,3850 2730 C3867 2720,3870 2709,3870 2625 L3870 2531 3752 2504 C3687 2489,3538 2454,3420 2425 L3205 2373 3120 2392 C3073 2402,2963 2428,2875 2449 C2787 2471,2675 2496,2627 2506 L2540 2524 2540 2621 C2540 2697,2543 2719,2555 2723 C2568 2728,2570 2827,2570 3532 L2570 4335 2466 4363 C2358 4392,2276 4426,2235 4460 L2210 4480 2210 3530 M4252 3537 L4255 2595 4415 2595 L4575 2595 4577 3537 L4580 4480 4415 4480 L4250 4480 4252 3537 M4393 4219 C4390 4213,4387 4152,4387 4085 L4388 3961 4343 3938 C4319 3925,4300 3908,4302 3901 C4303 3894,4336 3871,4374 3852 L4443 3816 4371 3781 C4327 3759,4300 3739,4300 3729 C4300 3719,4326 3700,4370 3680 C4408 3661,4439 3643,4439 3640 C4439 3637,4408 3620,4369 3602 C4328 3583,4300 3564,4300 3555 C4300 3546,4330 3524,4372 3503 L4444 3467 4417 3453 C4400 3445,4389 3430,4388 3417 C4387 3397,4388 3166,4389 3147 C4390 3133,4417 3139,4423 3155 C4427 3164,4430 3225,4430 3290 L4430 3409 4470 3430 C4524 3458,4519 3476,4443 3514 C4409 3531,4378 3548,4374 3552 C4370 3555,4399 3573,4438 3590 C4485 3611,4510 3628,4510 3639 C4510 3649,4483 3668,4437 3691 L4365 3727 4437 3763 C4478 3784,4510 3806,4510 3815 C4510 3823,4478 3845,4438 3865 L4367 3901 4397 3919 L4427 3937 4429 4066 C4430 4137,4428 4203,4425 4212 C4419 4232,4403 4235,4393 4219 M3107 2814 C3056 2800,2685 2713,2602 2694 C2582 2690,2580 2683,2580 2629 C2580 2572,2581 2569,2602 2574 C2614 2577,2701 2595,2795 2614 C2888 2633,3018 2660,3084 2675 L3203 2700 3489 2644 C3646 2614,3787 2586,3802 2583 L3830 2578 3830 2637 L3830 2696 3757 2713 C3717 2722,3587 2752,3467 2779 C3229 2834,3199 2837,3107 2814 M2967 2615 C2856 2590,2762 2570,2760 2569 C2744 2566,2824 2544,2997 2504 L3193 2459 3334 2490 C3541 2535,3643 2561,3653 2569 C3657 2574,3639 2580,3613 2584 C3586 2588,3489 2607,3397 2625 C3305 2644,3216 2660,3200 2660 C3183 2660,3078 2639,2967 2615 M4204 2526 C4197 2486,4211 2424,4228 2426 C4234 2426,4332 2427,4445 2428 L4650 2430 4645 2490 L4640 2550 4425 2555 L4210 2560 4204 2526 M1785 2543 C1782 2539,1780 2510,1780 2478 L1780 2420 2005 2420 L2230 2420 2225 2480 L2220 2540 2005 2545 C1886 2547,1787 2547,1785 2543 M2660 2542 C2660 2534,2993 2458,3015 2460 C3020 2461,2960 2476,2882 2494 C2804 2513,2726 2533,2709 2539 C2674 2551,2660 2552,2660 2542 M3672 2535 C3647 2523,3647 2521,3666 2520 C3677 2520,3692 2526,3698 2535 C3712 2553,3707 2553,3672 2535 M3512 2496 C3486 2488,3474 2482,3485 2482 C3496 2482,3526 2488,3552 2495 C3578 2503,3591 2510,3580 2510 C3569 2510,3538 2503,3512 2496 M3297 2447 C3230 2430,3182 2414,3191 2412 C3207 2408,3451 2466,3456 2475 C3464 2486,3410 2477,3297 2447 M3040 2450 C3040 2444,3046 2440,3055 2440 C3063 2440,3070 2444,3070 2450 C3070 2455,3063 2460,3055 2460 C3046 2460,3040 2455,3040 2450 M1487 5039 C1468 5013,1460 5009,1436 5014 C1421 5017,1399 5014,1387 5008 C1371 5000,1368 4991,1372 4960 C1377 4926,1374 4919,1348 4900 C1313 4874,1312 4847,1344 4822 C1365 4805,1368 4796,1363 4767 C1358 4737,1361 4729,1379 4720 C1392 4713,1416 4710,1433 4713 C1460 4718,1467 4714,1485 4687 C1496 4669,1513 4653,1523 4651 C1543 4647,1580 4676,1580 4695 C1580 4704,1594 4707,1626 4706 C1681 4704,1699 4723,1684 4766 C1675 4792,1677 4797,1704 4815 C1744 4842,1748 4872,1714 4898 C1692 4915,1689 4923,1695 4953 C1700 4982,1698 4990,1679 5000 C1667 5006,1642 5009,1624 5006 C1594 5002,1588 5005,1570 5035 C1544 5078,1517 5079,1487 5039 M1504 5017 C1491 4997,1491 4993,1506 4982 C1526 4967,1530 4967,1549 4979 C1561 4987,1561 4993,1552 5014 C1537 5045,1524 5046,1504 5017 M1400 4964 C1400 4933,1426 4921,1447 4943 C1466 4962,1450 4990,1420 4990 C1405 4990,1400 4983,1400 4964 M1604 4965 C1595 4944,1607 4930,1634 4930 C1655 4930,1670 4946,1670 4970 C1670 4986,1610 4981,1604 4965 M1483 4885 C1468 4861,1468 4858,1484 4835 C1501 4807,1546 4800,1568 4822 C1582 4836,1583 4881,1570 4898 C1551 4919,1501 4912,1483 4885 M1610 4895 C1610 4886,1614 4880,1620 4880 C1625 4880,1630 4886,1630 4895 C1630 4903,1625 4910,1620 4910 C1614 4910,1610 4903,1610 4895 M1357 4873 C1347 4860,1349 4855,1364 4843 C1381 4831,1386 4831,1398 4844 C1415 4860,1406 4890,1385 4890 C1376 4890,1364 4882,1357 4873 M1651 4872 C1633 4834,1659 4817,1695 4843 C1710 4855,1712 4860,1702 4873 C1686 4895,1662 4894,1651 4872 M1395 4783 C1383 4767,1391 4740,1407 4740 C1435 4740,1453 4756,1446 4773 C1440 4789,1404 4796,1395 4783 M1603 4775 C1593 4750,1607 4730,1634 4730 C1659 4730,1665 4741,1655 4774 C1648 4794,1611 4794,1603 4775 M1498 4740 C1489 4734,1491 4724,1504 4704 L1522 4677 1543 4699 C1563 4719,1564 4721,1547 4735 C1527 4752,1514 4753,1498 4740 M4855 4970 C4841 4944,4837 4942,4805 4949 C4759 4960,4734 4935,4743 4889 C4748 4863,4745 4854,4724 4838 C4694 4814,4692 4776,4720 4756 C4737 4744,4740 4735,4734 4707 C4726 4663,4746 4645,4797 4652 C4830 4656,4837 4653,4855 4626 C4882 4583,4912 4581,4940 4618 C4960 4645,4964 4646,4996 4637 C5025 4628,5032 4629,5045 4645 C5054 4657,5058 4678,5056 4701 C5052 4732,5056 4739,5081 4754 C5100 4765,5110 4779,5110 4794 C5110 4817,5087 4850,5071 4850 C5066 4850,5065 4862,5067 4878 C5070 4894,5066 4917,5060 4929 C5050 4948,5043 4950,5009 4944 C4973 4938,4967 4941,4945 4969 C4911 5009,4875 5010,4855 4970 M4878 4948 C4869 4930,4870 4924,4884 4913 C4917 4889,4946 4925,4920 4958 C4905 4975,4891 4972,4878 4948 M4772 4897 C4775 4870,4814 4860,4823 4885 C4832 4908,4823 4920,4795 4920 C4775 4920,4770 4915,4772 4897 M4985 4909 C4965 4895,4977 4870,5005 4870 C5027 4870,5044 4893,5035 4910 C5028 4923,5003 4922,4985 4909 M4865 4839 C4847 4826,4845 4768,4862 4752 C4877 4736,4910 4737,4932 4753 C4983 4792,4917 4876,4865 4839 M4980 4830 C4980 4813,4997 4809,5003 4825 C5007 4834,5004 4840,4995 4840 C4986 4840,4980 4835,4980 4830 M4739 4814 C4723 4801,4721 4795,4730 4784 C4747 4763,4767 4766,4774 4790 C4782 4820,4763 4833,4739 4814 M5020 4801 C5006 4774,5026 4757,5054 4771 C5082 4786,5081 4784,5075 4803 C5068 4825,5032 4824,5020 4801 M4764 4714 C4757 4691,4767 4680,4795 4680 C4822 4680,4832 4691,4819 4707 C4803 4728,4770 4731,4764 4714 M4975 4704 C4966 4678,4969 4672,4988 4667 C5016 4660,5033 4674,5026 4698 C5018 4723,4982 4727,4975 4704 M4873 4673 C4865 4654,4881 4625,4900 4625 C4907 4625,4917 4632,4923 4642 C4932 4655,4930 4662,4917 4674 C4895 4694,4881 4694,4873 4673 M1145 4713 C1142 4709,1140 4699,1140 4689 C1140 4671,995 4439,976 4427 C970 4423,960 4418,955 4416 C941 4411,961 4389,1000 4366 L1032 4347 1025 4384 C1020 4414,1023 4428,1046 4465 C1062 4489,1078 4509,1082 4509 C1101 4510,1329 4356,1334 4340 C1338 4329,1337 4310,1334 4295 C1323 4252,1345 4266,1378 4322 C1395 4351,1417 4387,1426 4402 C1449 4437,1440 4445,1402 4423 C1373 4406,1372 4406,1324 4437 C1297 4454,1240 4489,1197 4516 C1154 4542,1120 4567,1120 4572 C1120 4576,1131 4598,1145 4620 C1165 4652,1176 4660,1200 4660 C1239 4660,1237 4673,1195 4699 C1156 4721,1152 4723,1145 4713 M5288 4444 C5282 4436,5278 4428,5281 4426 C5283 4425,5297 4416,5312 4406 C5343 4387,5348 4359,5323 4339 C5309 4327,5299 4330,5249 4357 C5181 4395,5152 4397,5116 4369 C5094 4352,5090 4340,5090 4303 C5090 4224,5128 4173,5179 4184 C5213 4192,5219 4207,5192 4216 C5133 4235,5112 4259,5125 4293 C5137 4323,5175 4323,5225 4296 C5280 4265,5329 4262,5358 4287 C5393 4316,5391 4384,5355 4429 C5327 4463,5306 4468,5288 4444 M955 4157 C927 4083,890 3974,890 3969 C890 3960,936 3940,943 3946 C946 3949,943 3962,937 3975 C923 4007,945 4064,968 4054 C977 4050,997 4043,1012 4037 C1046 4025,1047 4006,1014 3974 L989 3949 1024 3934 C1072 3914,1083 3915,1070 3939 C1056 3964,1057 3972,1073 3994 C1085 4010,1088 4010,1123 3996 C1143 3987,1160 3974,1160 3965 C1160 3933,1136 3900,1108 3894 C1067 3885,1078 3865,1126 3861 L1167 3858 1199 3946 C1216 3995,1233 4045,1237 4058 L1242 4082 1211 4059 C1181 4037,1179 4037,1137 4053 C1114 4061,1069 4078,1037 4090 C985 4109,980 4114,980 4140 C980 4170,964 4180,955 4157 M5467 4079 C5445 4068,5445 4068,5463 4054 C5474 4046,5486 4039,5491 4037 C5495 4036,5502 4020,5505 4003 C5511 3974,5509 3971,5475 3960 C5423 3943,5406 3952,5411 3995 C5416 4034,5406 4038,5355 4016 C5327 4004,5326 4002,5345 3996 C5362 3990,5390 3953,5390 3935 C5390 3930,5329 3910,5312 3910 C5305 3910,5292 3926,5283 3946 C5269 3980,5269 3983,5289 4004 C5300 4016,5310 4029,5310 4033 C5310 4046,5277 4039,5249 4019 L5221 3999 5256 3897 C5292 3792,5310 3759,5310 3795 C5310 3834,5337 3855,5428 3884 C5514 3911,5520 3912,5538 3896 C5562 3874,5584 3874,5575 3897 C5571 3907,5555 3954,5539 4002 C5523 4050,5505 4090,5500 4090 C5494 4090,5479 4085,5467 4079 M882 3686 C800 3645,757 3540,791 3466 C805 3435,817 3430,849 3441 L874 3450 847 3472 C814 3501,805 3533,820 3571 C853 3651,1014 3648,1056 3567 C1077 3526,1067 3496,1018 3457 C979 3426,978 3424,1001 3419 C1014 3415,1033 3417,1043 3422 C1067 3434,1099 3506,1099 3550 C1100 3654,975 3732,882 3686 M5591 3656 C5576 3635,5562 3631,5489 3625 C5372 3616,5330 3609,5330 3599 C5330 3588,5377 3554,5467 3499 C5507 3475,5540 3452,5540 3449 C5540 3441,5477 3430,5435 3430 C5419 3430,5396 3439,5383 3451 L5360 3473 5360 3449 C5360 3398,5373 3320,5381 3320 C5385 3320,5392 3331,5395 3345 C5404 3380,5424 3388,5527 3395 C5617 3402,5617 3402,5634 3376 C5657 3341,5673 3353,5665 3398 C5656 3446,5641 3461,5542 3521 C5496 3549,5462 3575,5466 3579 C5471 3584,5500 3589,5532 3593 C5582 3597,5593 3595,5610 3577 C5637 3548,5642 3558,5635 3624 C5629 3685,5619 3692,5591 3656 M1030 3205 C1020 3179,991 3171,880 3168 C810 3165,790 3172,790 3196 C790 3204,784 3209,777 3207 C770 3205,765 3195,765 3186 C766 3177,767 3145,768 3115 C769 3073,773 3060,785 3060 C793 3060,800 3066,800 3074 C800 3082,808 3093,819 3099 C842 3111,896 3113,903 3102 C906 3097,909 3063,911 3024 L913 2955 867 2951 C829 2949,819 2952,810 2969 C787 3011,778 2991,785 2917 C793 2833,803 2816,817 2858 C827 2885,833 2888,886 2893 C947 2899,1002 2902,1032 2901 C1042 2900,1055 2888,1061 2875 C1083 2828,1091 2848,1084 2927 C1077 3011,1065 3038,1054 2996 C1047 2967,1020 2956,973 2961 C945 2964,944 2966,942 3034 C938 3110,944 3119,997 3119 C1019 3119,1032 3113,1040 3100 C1062 3058,1072 3078,1066 3152 C1063 3192,1060 3226,1060 3227 C1058 3239,1038 3225,1030 3205 M5370 3136 C5370 3106,5367 3068,5363 3051 C5356 3012,5375 3008,5391 3045 C5402 3068,5407 3070,5480 3070 C5587 3070,5619 3062,5630 3033 C5640 3007,5655 3002,5662 3022 C5664 3029,5667 3065,5668 3102 C5671 3173,5659 3190,5638 3145 C5625 3117,5608 3115,5486 3126 C5423 3132,5416 3135,5403 3161 C5382 3205,5370 3195,5370 3136 M5340 2821 C5323 2755,5317 2720,5323 2720 C5327 2720,5338 2725,5348 2731 C5362 2740,5381 2737,5433 2720 C5470 2708,5499 2696,5497 2693 C5495 2691,5453 2681,5404 2672 C5341 2659,5314 2649,5312 2638 C5310 2629,5337 2599,5379 2565 C5418 2533,5448 2505,5446 2503 C5439 2496,5345 2520,5322 2535 C5310 2543,5300 2559,5300 2570 C5300 2591,5281 2597,5275 2577 C5274 2570,5264 2538,5255 2506 C5246 2474,5240 2445,5243 2442 C5246 2439,5263 2449,5280 2464 C5303 2483,5320 2489,5338 2485 C5353 2483,5387 2477,5415 2474 C5485 2465,5510 2447,5510 2404 C5510 2385,5514 2370,5519 2370 C5527 2370,5560 2463,5560 2486 C5560 2491,5526 2523,5485 2558 C5443 2593,5410 2625,5410 2630 C5410 2638,5481 2656,5558 2666 C5603 2673,5611 2682,5634 2757 C5643 2786,5623 2787,5600 2757 L5582 2735 5508 2758 C5412 2789,5382 2805,5375 2829 C5365 2864,5350 2861,5340 2821 M1110 2665 C1110 2634,1086 2619,987 2589 L909 2566 879 2589 C841 2616,833 2610,850 2567 C868 2520,887 2506,995 2465 C1048 2444,1087 2424,1083 2420 C1078 2416,1049 2406,1018 2397 C967 2383,959 2383,940 2397 C909 2418,905 2407,921 2348 C935 2299,960 2270,960 2303 C960 2330,988 2348,1071 2374 C1116 2388,1156 2400,1160 2400 C1165 2400,1180 2404,1195 2410 C1236 2425,1213 2443,1088 2491 C1028 2514,982 2536,987 2540 C997 2549,1089 2580,1108 2580 C1116 2580,1131 2572,1141 2563 C1168 2539,1175 2554,1157 2597 C1148 2618,1138 2647,1135 2662 C1128 2696,1110 2698,1110 2665 M1280 2227 C1280 2197,1274 2190,1217 2158 C1098 2089,1090 2086,1070 2104 C1052 2120,1029 2125,1030 2112 C1030 2108,1045 2078,1063 2045 C1099 1980,1127 1958,1116 2003 C1108 2033,1118 2040,1237 2102 C1298 2134,1300 2134,1329 2118 C1345 2109,1360 2104,1363 2106 C1368 2112,1306 2233,1290 2250 C1283 2256,1280 2249,1280 2227 M5172 2225 C5063 2183,5028 2051,5106 1974 C5211 1869,5390 1946,5390 2095 C5390 2195,5273 2264,5172 2225 M5142 2178 C5116 2160,5110 2148,5110 2111 C5109 2020,5257 1938,5320 1995 C5347 2019,5346 2082,5318 2122 C5279 2176,5185 2206,5142 2178 M1377 1929 C1310 1907,1270 1848,1270 1775 C1270 1715,1289 1670,1329 1637 C1363 1608,1398 1602,1418 1622 C1441 1645,1431 1660,1391 1660 C1288 1660,1282 1798,1382 1860 C1417 1881,1470 1886,1499 1870 C1524 1856,1537 1813,1532 1760 L1528 1715 1555 1740 C1576 1760,1580 1771,1576 1798 C1561 1889,1459 1956,1377 1929 M4853 1814 C4797 1750,4788 1727,4828 1749 C4860 1766,4872 1762,4923 1713 L4971 1667 4903 1598 L4835 1529 4785 1579 C4737 1627,4735 1631,4747 1660 C4764 1706,4745 1695,4675 1622 C4618 1561,4607 1537,4648 1559 C4659 1565,4675 1570,4684 1570 C4700 1570,4886 1402,4903 1372 C4908 1363,4907 1347,4900 1332 C4894 1318,4891 1304,4894 1301 C4901 1295,5020 1410,5020 1422 C5020 1427,5004 1428,4986 1424 C4956 1418,4946 1422,4911 1455 C4888 1475,4870 1497,4870 1503 C4870 1510,4899 1544,4935 1580 L5000 1644 5046 1598 C5090 1554,5092 1550,5081 1521 C5064 1471,5087 1482,5152 1554 C5212 1620,5217 1639,5168 1614 L5138 1598 5034 1695 C4977 1748,4928 1800,4924 1810 C4921 1820,4923 1838,4929 1848 C4943 1875,4942 1880,4925 1880 C4916 1880,4884 1850,4853 1814 M1700 1654 C1700 1646,1705 1631,1711 1620 C1721 1605,1717 1578,1686 1473 C1650 1347,1647 1300,1675 1300 C1682 1300,1717 1319,1751 1343 C1860 1417,1906 1441,1936 1437 C1978 1433,1971 1452,1913 1498 C1860 1540,1846 1542,1855 1505 C1859 1489,1854 1478,1835 1466 C1810 1450,1809 1450,1774 1482 C1740 1513,1739 1517,1751 1543 C1761 1565,1769 1570,1787 1567 C1827 1559,1821 1575,1764 1623 C1704 1674,1700 1676,1700 1654 M1710 1437 C1705 1414,1703 1393,1705 1391 C1707 1389,1725 1397,1744 1409 C1782 1433,1781 1449,1740 1470 C1722 1478,1719 1475,1710 1437 M3118 1443 C3050 1406,3016 1313,3045 1242 C3090 1128,3220 1095,3308 1175 C3424 1279,3352 1460,3195 1460 C3170 1460,3136 1452,3118 1443 M4212 1320 C4197 1293,4192 1291,4159 1296 C4115 1303,4095 1283,4102 1238 C4106 1212,4101 1201,4078 1182 C4043 1152,4042 1125,4074 1104 C4094 1091,4097 1083,4092 1052 C4085 1006,4105 989,4160 997 C4190 1001,4200 999,4200 988 C4200 971,4240 930,4257 930 C4263 930,4279 942,4292 958 C4311 981,4322 986,4348 982 C4395 975,4420 1000,4409 1045 C4402 1077,4404 1081,4430 1095 C4473 1117,4478 1148,4444 1177 C4422 1196,4416 1210,4415 1243 L4415 1285 4366 1285 C4324 1286,4316 1290,4299 1318 C4273 1360,4236 1361,4212 1320 M4232 1299 C4216 1279,4216 1277,4234 1264 C4257 1247,4260 1247,4279 1259 C4291 1267,4291 1273,4282 1294 C4267 1325,4255 1326,4232 1299 M4126 1264 C4118 1253,4132 1210,4143 1210 C4173 1210,4198 1254,4174 1264 C4156 1271,4131 1271,4126 1264 M4335 1253 C4323 1237,4331 1221,4356 1215 C4383 1208,4399 1220,4399 1247 C4400 1260,4344 1265,4335 1253 M4220 1184 C4181 1154,4204 1090,4254 1090 C4280 1090,4310 1118,4310 1143 C4310 1164,4275 1200,4255 1200 C4246 1200,4231 1192,4220 1184 M4087 1153 C4077 1140,4079 1135,4095 1123 C4112 1111,4116 1111,4127 1126 C4134 1136,4137 1147,4135 1152 C4124 1168,4099 1169,4087 1153 M4379 1156 C4367 1139,4377 1110,4394 1110 C4415 1110,4440 1144,4429 1158 C4416 1174,4392 1173,4379 1156 M4125 1073 C4112 1056,4120 1020,4137 1020 C4165 1020,4183 1036,4176 1053 C4169 1070,4133 1084,4125 1073 M4335 1063 C4322 1047,4331 1020,4351 1014 C4377 1006,4390 1019,4384 1047 C4380 1068,4347 1079,4335 1063 M4224 1019 C4217 1007,4245 960,4259 960 C4265 960,4274 969,4280 981 C4290 999,4289 1005,4276 1016 C4256 1032,4232 1033,4224 1019 M2138 1271 C2120 1246,2112 1242,2081 1247 C2035 1253,2015 1233,2022 1187 C2026 1162,2022 1151,2003 1137 C1974 1114,1973 1075,2000 1056 C2017 1044,2019 1035,2014 1001 C2008 964,2009 959,2031 951 C2044 946,2067 946,2081 950 C2105 957,2111 954,2129 924 C2154 881,2189 878,2218 915 C2235 937,2244 940,2269 935 C2285 931,2308 933,2320 940 C2339 950,2341 957,2335 995 C2331 1023,2332 1040,2338 1040 C2353 1040,2390 1081,2390 1096 C2390 1104,2378 1119,2364 1131 C2344 1149,2340 1159,2345 1186 C2354 1230,2336 1246,2285 1240 C2250 1235,2241 1238,2222 1262 C2189 1303,2164 1305,2138 1271 M2160 1258 C2138 1231,2162 1193,2193 1205 C2220 1216,2208 1270,2180 1270 C2174 1270,2165 1264,2160 1258 M2052 1197 C2055 1170,2094 1160,2103 1185 C2112 1208,2103 1220,2075 1220 C2055 1220,2050 1215,2052 1197 M2254 1200 C2245 1184,2256 1172,2284 1167 C2307 1163,2320 1174,2320 1200 C2320 1213,2261 1212,2254 1200 M2144 1137 C2123 1120,2128 1060,2151 1046 C2180 1028,2224 1050,2228 1083 C2234 1135,2182 1168,2144 1137 M2010 1108 C1999 1094,2014 1070,2034 1070 C2051 1070,2068 1090,2064 1106 C2059 1123,2023 1124,2010 1108 M2300 1101 C2283 1069,2311 1054,2341 1079 C2359 1095,2362 1101,2352 1109 C2333 1125,2310 1121,2300 1101 M2050 1018 C2031 995,2039 980,2069 980 C2102 980,2113 990,2099 1007 C2084 1026,2061 1031,2050 1018 M2255 1013 C2242 996,2251 971,2272 966 C2300 959,2313 971,2305 998 C2300 1018,2266 1028,2255 1013 M2154 977 C2139 965,2140 961,2158 939 C2174 919,2179 917,2193 929 C2215 947,2214 967,2190 980 C2175 987,2165 986,2154 977 M3030 1114 C2993 1092,3057 1032,3140 1009 C3214 989,3317 1017,3364 1069 C3382 1088,3382 1091,3367 1106 C3353 1121,3348 1120,3318 1096 C3245 1041,3151 1040,3082 1094 C3047 1122,3045 1122,3030 1114 M2933 974 C2924 951,2965 913,3037 878 C3171 812,3336 835,3443 935 C3465 956,3468 964,3459 975 C3442 996,3426 993,3400 965 C3313 872,3119 867,3005 955 C2954 993,2942 997,2933 974 M2810 861 C2810 823,2944 732,3041 704 C3118 682,3252 680,3330 699 C3434 724,3605 837,3586 868 C3573 888,3549 881,3506 844 C3432 780,3297 730,3203 730 C3103 730,2967 778,2884 844 C2835 883,2810 889,2810 861 M5225 5672 C5223 5667,5225 5657,5230 5649 C5251 5616,5238 5589,5151 5494 C5102 5440,5055 5393,5046 5388 C5037 5383,5021 5384,5005 5391 C4956 5413,4966 5389,5030 5330 C5102 5263,5129 5252,5105 5298 C5091 5325,5092 5329,5112 5357 C5178 5445,5191 5441,5187 5332 C5185 5251,5183 5245,5162 5240 C5140 5235,5142 5231,5194 5180 C5252 5123,5276 5119,5245 5171 C5225 5206,5210 5372,5226 5383 C5232 5386,5286 5394,5348 5400 C5447 5411,5462 5410,5484 5396 C5516 5375,5520 5375,5520 5399 C5520 5409,5506 5429,5489 5444 C5454 5473,5420 5476,5306 5459 C5211 5445,5201 5454,5252 5508 C5290 5549,5296 5551,5332 5545 C5358 5541,5369 5543,5365 5549 C5353 5571,5229 5679,5225 5672 M1690 811 C1690 806,1696 796,1705 790 C1726 771,1723 722,1693 633 C1651 508,1635 481,1595 474 C1575 470,1560 463,1560 459 C1560 447,1633 409,1655 409 C1664 409,1714 445,1765 490 C1817 534,1861 570,1864 570 C1867 570,1870 508,1870 432 L1870 295 1915 267 C1972 233,1987 232,1966 264 C1957 278,1950 297,1950 307 C1950 326,2058 521,2086 551 C2095 561,2118 570,2138 571 C2174 574,2173 575,2082 622 C1990 669,1976 671,2004 634 C2027 604,2023 582,1975 496 C1897 352,1898 351,1905 532 C1909 619,1908 689,1903 689 C1898 689,1846 646,1787 594 C1728 541,1680 503,1680 508 C1680 522,1748 680,1765 707 C1775 722,1790 730,1810 730 C1857 730,1845 746,1775 779 C1739 796,1705 812,1700 815 C1694 817,1690 816,1690 811 M4667 809 C4613 783,4490 706,4490 697 C4490 692,4502 691,4517 694 C4533 698,4552 695,4562 687 C4584 671,4710 460,4710 439 C4710 431,4703 414,4694 402 C4669 366,4691 370,4776 418 C4875 475,4885 483,4898 519 C4916 570,4868 630,4809 630 C4790 630,4790 630,4810 662 C4838 709,4835 744,4800 779 C4766 813,4705 827,4667 809 M4640 764 C4629 755,4620 744,4620 740 C4620 724,4692 610,4701 610 C4707 610,4725 623,4741 640 C4778 676,4774 710,4729 752 C4696 783,4669 787,4640 764 M4730 594 C4724 590,4720 582,4720 574 C4720 555,4779 460,4791 460 C4796 460,4812 471,4826 485 C4855 514,4852 552,4819 582 C4800 599,4750 606,4730 594 M4332 635 C4290 617,4254 597,4252 591 C4250 585,4263 579,4281 578 C4313 575,4315 573,4317 529 L4320 483 4263 461 L4206 439 4182 462 C4143 498,4136 519,4154 539 C4178 566,4162 570,4116 550 C4093 539,4067 528,4057 525 C4029 517,4037 500,4069 500 C4095 500,4116 480,4221 362 C4289 285,4354 221,4368 217 L4393 210 4386 403 C4379 587,4380 597,4399 623 C4433 668,4414 672,4332 635 M4272 433 C4251 424,4233 415,4231 413 C4229 412,4250 383,4278 349 L4330 288 4330 359 C4330 398,4325 434,4320 440 C4313 446,4297 444,4272 433 M2240 553 C2240 550,2251 534,2264 518 C2278 502,2287 483,2285 477 C2282 470,2264 411,2245 345 C2225 280,2204 220,2198 213 C2192 206,2173 200,2156 199 C2137 199,2129 196,2135 190 C2150 175,2409 97,2424 103 C2437 108,2454 158,2445 167 C2442 170,2429 165,2415 156 C2391 140,2386 140,2330 157 C2295 167,2270 180,2270 188 C2270 195,2277 226,2285 256 L2301 311 2338 305 C2358 301,2384 288,2397 274 C2409 261,2421 249,2424 250 C2429 250,2449 318,2449 337 C2449 347,2444 346,2427 335 C2408 323,2396 322,2366 330 C2345 336,2326 347,2323 355 C2315 375,2348 480,2365 486 C2383 493,2479 462,2502 442 C2512 433,2520 416,2520 404 C2520 392,2526 377,2534 370 C2546 360,2550 362,2555 384 C2559 399,2558 425,2553 442 C2545 471,2538 476,2474 493 C2436 503,2370 522,2327 535 C2242 562,2240 562,2240 553 M3882 484 C3867 479,3685 437,3622 424 C3592 417,3593 400,3624 400 C3660 400,3675 369,3699 245 C3711 184,3723 127,3726 117 C3729 106,3720 90,3704 75 C3689 61,3679 47,3682 43 C3691 35,3852 73,3853 84 C3854 90,3841 97,3825 99 C3792 105,3795 97,3754 283 C3740 349,3731 405,3735 408 C3744 417,3831 439,3861 439 C3880 439,3897 429,3919 402 C3942 374,3952 368,3961 377 C3969 385,3966 399,3946 434 C3916 485,3907 492,3882 484 " />
<path d="M3421 6340 C3382 6314,3340 6227,3340 6172 C3340 6038,3466 5972,3545 6064 C3615 6144,3618 6291,3551 6343 C3522 6365,3456 6364,3421 6340 " />
<path d="M3264 205 C3271 174,3309 85,3314 91 C3316 93,3327 125,3338 162 L3360 230 3310 230 C3262 230,3260 228,3264 205 " />
</g>

</svg>