<?xml version="1.0" encoding="UTF-8"?>
<!DOCTYPE svg PUBLIC "-//W3C//DTD SVG 1.0//EN" "http://www.w3.org/TR/2001/REC-SVG-20010904/DTD/svg10.dtd" [
	<!ENTITY ns_svg "http://www.w3.org/2000/svg">
	<!ENTITY ns_xlink "http://www.w3.org/1999/xlink">
]>
<svg xmlns="http://www.w3.org/2000/svg" xmlns:xlink="http://www.w3.org/1999/xlink" xml:space="preserve" width="260" height="110">
	<g transform="matrix(0.9659, -0.2588, 0.2588, 0.9659, 165.151, -5.0952)">
		<path fill="#000000" d="M-124.874,28.09h-9.719c0,0-12.518,20.631-12.518,20.631c-1.418,2.332-2.641,4.547-3.668,6.645    c0,0-0.07,0-0.07,0c0.188-2.098,0.195-4.381,0.02-6.854c0,0-1.311-20.422-1.311-20.422h-9.438l-15.34,36.375h7.551    c0,0,7.367-18.621,7.367-18.621c1.6-4.059,2.678-6.953,3.232-8.68c0,0,0.07,0,0.07,0c-0.146,2.287-0.133,5.018,0.043,8.189    c0,0,1.102,19.111,1.102,19.111h7.971c0,0,12.365-20.58,12.365-20.58c1.332-2.191,2.545-4.455,3.637-6.789c0,0,0.07,0,0.07,0    c-0.59,3.594-1.008,6.371-1.254,8.33c0,0-2.375,19.039-2.375,19.039h7.971L-124.874,28.09z M-97.09,58.465h-13.92l2.646-9.875    h13.291l1.541-5.75h-13.291l2.377-8.875h13.92l1.574-5.875h-21.42l-9.746,36.375h21.42L-97.09,58.465z M-54.501,28.09h-27.721    l-1.742,6.5h10.125l-8.004,29.875h7.5l8.004-29.875h10.096L-54.501,28.09z M-30.454,28.09h-8.883l-23.527,36.375h7.555    l4.566-7.125h15.18l0.68,7.125h8.395L-30.454,28.09z M-47.442,51.84c0,0,6.66-10.229,6.66-10.229    c1.016-1.531,2.127-3.41,3.332-5.637c0,0,0.07,0,0.07,0c0.023,1.996,0.145,3.896,0.361,5.705c0,0,1.057,10.16,1.057,10.16    H-47.442z M2.056,57.84h-12.59l7.971-29.75h-7.5l-9.746,36.375h20.09L2.056,57.84z M36.046,28.09h-8.883L3.635,64.465h7.555    l4.566-7.125h15.18l0.68,7.125h8.395L36.046,28.09z M19.057,51.84c0,0,6.66-10.229,6.66-10.229    c1.016-1.531,2.127-3.41,3.332-5.637c0,0,0.07,0,0.07,0c0.023,1.996,0.145,3.896,0.361,5.705c0,0,1.057,10.16,1.057,10.16H19.057    z M70.361,45.09c0,0,0.02-0.07,0.02-0.07c4.377-1.537,7.09-4.264,8.141-8.178c1.584-5.918-2.01-8.877-10.783-8.877    c-1.727,0-4.137,0.023-7.229,0.07c-3.094,0.047-5.152,0.07-6.178,0.07c0,0-9.738,36.344-9.738,36.344    c6.594,0.094,10.52,0.141,11.777,0.141c5.453,0,9.844-1.258,13.176-3.773c2.633-2.004,4.355-4.52,5.168-7.549    C75.9,48.842,74.449,46.115,70.361,45.09C70.361,45.09,70.361,45.09,70.361,45.09z M60.623,43.34    c-1.121,0-2.072-0.023-2.854-0.07c0,0,2.66-9.93,2.66-9.93c0.42,0,1.152-0.031,2.197-0.096c0.98,0,1.703,0,2.172,0    c4.438,0,6.236,1.566,5.398,4.697C69.232,41.541,66.041,43.34,60.623,43.34C60.623,43.34,60.623,43.34,60.623,43.34z     M57.82,59.09c-1.924,0-3.33-0.092-4.217-0.277c0,0,2.822-10.529,2.822-10.529c0.621-0.045,1.705-0.068,3.254-0.068    c5.629,0,7.979,1.732,7.053,5.195C65.717,57.197,62.746,59.09,57.82,59.09C57.82,59.09,57.82,59.09,57.82,59.09z"/>
	</g>
</svg>
